<svg width="124" height="86" viewBox="0 0 124 86" fill="none" xmlns="http://www.w3.org/2000/svg">
<path d="M82.7742 42.7432C82.4082 45.8541 83.9456 53.5768 93.0223 59.5791C85.7758 61.4668 69.7627 69.3605 63.5907 85.8457C63.8199 84.5442 63.6961 68.6221 63.5838 58.7607C64.7382 58.931 65.8746 59.2651 66.9569 59.7627C65.4438 56.4722 65.4438 52.684 66.9569 49.3936C63.6665 50.9065 59.8791 50.9065 56.5887 49.3936C58.1017 52.684 58.1017 56.4722 56.5887 59.7627C57.709 59.2476 58.8866 58.9075 60.0828 58.7432V85.9307C57.2768 78.4887 47.3823 62.8361 30.2537 59.7617C33.7308 57.7486 40.6844 51.5269 40.6844 42.7432C40.6904 42.5953 54.8385 38.8999 61.9129 37.0703L82.7742 42.7432ZM3.27816 38.7188C1.26567 45.6141 2.72915 60.0269 24.6834 62.5166C31.2087 63.3099 46.0154 67.9357 53.0409 80.0908C49.9913 76.3684 39.5025 67.826 24.5008 67.0938C10.7791 66.1784 -7.55268 63.6154 3.27816 38.7188ZM119.778 38.7188C130.609 63.6154 112.277 66.1784 98.5555 67.0938C83.5538 67.826 73.0651 76.3684 70.0155 80.0908C77.0409 67.9357 91.8476 63.3099 98.3729 62.5166C120.327 60.0269 121.791 45.6141 119.778 38.7188ZM118.812 16.9434L91.5819 24.959V41.9023L61.7928 33.8867L31.6385 41.9023V27.874L59.0516 17.6719L31.6385 24.959L4.77327 17.125L61.7928 0L118.812 16.9434Z" fill="white"/>
</svg>
