<svg width="396" height="63" viewBox="0 0 396 63" fill="none" xmlns="http://www.w3.org/2000/svg">
<path d="M60.5878 31.2843C60.3199 33.5615 61.4452 39.214 68.0888 43.6074C62.7844 44.9892 51.0642 50.7675 46.5465 62.834C46.7143 61.8825 46.6248 50.2292 46.5425 43.0104C47.387 43.1351 48.2182 43.3792 49.0099 43.7433C47.9025 41.3348 47.9025 38.5623 49.0099 36.1538C46.6014 37.2612 43.8294 37.2613 41.421 36.1538C42.5285 38.5623 42.5285 41.3347 41.421 43.7433C42.2408 43.3663 43.1029 43.1174 43.9783 42.9971V62.8962C41.9244 57.4489 34.6821 45.9916 22.1445 43.7413C24.6895 42.2678 29.7793 37.7137 29.7794 31.2843C29.7794 31.1771 40.1381 28.4713 45.3175 27.1318L60.5878 31.2843ZM2.3995 28.3415C0.926431 33.3887 1.99772 43.9386 18.0676 45.7609C22.8439 46.3416 33.6823 49.7273 38.8246 58.6246C36.5927 55.9 28.9148 49.6469 17.9337 49.1109C7.88987 48.4409 -5.52829 46.565 2.3995 28.3415ZM87.6736 28.3415C95.6014 46.5649 82.1828 48.4409 72.139 49.1109C61.158 49.6469 53.4805 55.9 51.2485 58.6246C56.3908 49.7275 67.2286 46.3417 72.005 45.7609C88.0748 43.9386 89.1467 33.3887 87.6736 28.3415ZM86.9665 12.4021L67.0347 18.2694V30.6715L45.23 24.8038L23.158 30.6715V20.4032L43.2237 12.9353L23.158 18.2694L3.49359 12.5351L45.23 0L86.9665 12.4021Z" fill="#6730DE"/>
<path d="M349.56 13.128H353.365C353.756 13.128 353.952 13.2399 354.176 13.4637L359.464 18.3878L364.668 13.4637C364.919 13.2399 365.115 13.128 365.479 13.128H369.004C369.508 13.128 369.62 13.5757 369.312 13.8554L361.926 20.682L369.508 27.7604C369.816 28.0681 369.704 28.4878 369.228 28.4878H365.423C365.059 28.4878 364.835 28.4039 364.612 28.18L358.876 22.8363L353.225 28.18C353.001 28.4039 352.805 28.4878 352.441 28.4878H348.888C348.385 28.4878 348.273 28.0681 348.58 27.7604L356.442 20.5701L349.252 13.8554C348.944 13.5757 349.084 13.128 349.56 13.128Z" fill="black"/>
<path d="M324.826 8.90337H346.705C347.124 8.90337 347.348 9.09921 347.348 9.51888V12.2607C347.348 12.6804 347.124 12.8762 346.705 12.8762H337.892V27.8723C337.892 28.292 337.724 28.4878 337.304 28.4878H334.255C333.863 28.4878 333.639 28.292 333.639 27.8723V12.8762H324.826C324.434 12.8762 324.211 12.6804 324.211 12.2607V9.51888C324.211 9.09921 324.434 8.90337 324.826 8.90337Z" fill="black"/>
<path d="M306.041 8.90337H320.869C321.261 8.90337 321.485 9.09921 321.485 9.51888V12.2327C321.485 12.6244 321.261 12.8482 320.869 12.8482H306.852C305.845 12.8482 305.37 13.3239 305.37 14.359V15.3103C305.37 16.3175 305.817 16.7371 306.852 16.7371H317.316C320.45 16.7371 322.212 18.5277 322.212 21.6612V23.9274C322.212 26.8091 320.478 28.4878 317.26 28.4878H301.761C301.341 28.4878 301.145 28.292 301.145 27.8723V25.1584C301.145 24.7668 301.341 24.5429 301.761 24.5429H316.449C317.428 24.5429 317.932 24.0673 317.932 23.0321V21.885C317.932 20.8778 317.512 20.4582 316.477 20.4582H305.985C302.852 20.4582 301.117 18.6676 301.117 15.5341V13.4637C301.117 10.582 302.824 8.90337 306.041 8.90337Z" fill="black"/>
<path d="M285.293 8.90337H297.603C297.994 8.90337 298.218 9.09921 298.218 9.51888V12.2327C298.218 12.6244 297.994 12.8482 297.603 12.8482H285.321C282.439 12.8482 281.683 13.6596 281.683 16.5972V16.7371H297.435C297.827 16.7371 298.05 16.933 298.05 17.3526V19.8427C298.05 20.2623 297.827 20.4582 297.435 20.4582H281.683V20.7939C281.683 23.7316 282.439 24.5429 285.321 24.5429H297.603C297.994 24.5429 298.218 24.7668 298.218 25.1584V27.8723C298.218 28.292 297.994 28.4878 297.603 28.4878H285.293C279.613 28.4878 277.459 26.4454 277.459 21.1017V16.2895C277.459 10.9457 279.613 8.90337 285.293 8.90337Z" fill="black"/>
<path d="M250.92 8.90337H253.942C254.361 8.90337 254.557 9.09921 254.557 9.51888V20.682C254.557 23.6476 255.397 24.515 258.278 24.515H266.028C268.91 24.515 269.721 23.6476 269.721 20.682V9.51888C269.721 9.09921 269.945 8.90337 270.337 8.90337H273.386C273.806 8.90337 274.002 9.09921 274.002 9.51888V21.1017C274.002 26.4734 271.848 28.4878 266.168 28.4878H258.138C252.459 28.4878 250.305 26.4734 250.305 21.1017V9.51888C250.305 9.09921 250.5 8.90337 250.92 8.90337Z" fill="black"/>
<path d="M230.375 8.90337H238.992C244.672 8.90337 246.826 10.9178 246.826 16.2895V20.626C246.826 25.1864 245.259 27.3407 241.315 27.8723L244.532 32.3207C244.7 32.5725 244.644 33.0482 244.168 33.0482H240.559C240.112 33.0482 239.944 32.9363 239.776 32.6845L236.502 28.0122H230.375C224.696 28.0122 222.542 25.9698 222.542 20.626V16.2895C222.542 10.9457 224.696 8.90337 230.375 8.90337ZM226.794 16.5972V20.3183C226.794 23.256 227.605 24.0673 230.515 24.0673H238.825C241.734 24.0673 242.546 23.256 242.546 20.3183V16.5972C242.546 13.6596 241.734 12.8482 238.825 12.8482H230.515C227.605 12.8482 226.794 13.6596 226.794 16.5972Z" fill="black"/>
<path d="M191.549 8.90337H194.571C194.991 8.90337 195.186 9.09921 195.186 9.51888V20.682C195.186 23.6476 196.026 24.515 198.908 24.515H210.239C210.63 24.515 210.854 24.7108 210.854 25.1305V27.8723C210.854 28.292 210.63 28.4878 210.239 28.4878H198.768C193.088 28.4878 190.934 26.4734 190.934 21.1017V9.51888C190.934 9.09921 191.13 8.90337 191.549 8.90337Z" fill="black"/>
<path d="M169.528 8.90337H172.549C172.969 8.90337 173.165 9.09921 173.165 9.51888V20.682C173.165 23.6476 174.004 24.515 176.886 24.515H188.217C188.609 24.515 188.832 24.7108 188.832 25.1305V27.8723C188.832 28.292 188.609 28.4878 188.217 28.4878H176.746C171.067 28.4878 168.912 26.4734 168.912 21.1017V9.51888C168.912 9.09921 169.108 8.90337 169.528 8.90337Z" fill="black"/>
<path d="M161.578 8.90337H164.6C165.02 8.90337 165.216 9.09921 165.216 9.51888V27.8723C165.216 28.292 165.02 28.4878 164.6 28.4878H161.578C161.159 28.4878 160.963 28.292 160.963 27.8723V9.51888C160.963 9.09921 161.159 8.90337 161.578 8.90337Z" fill="black"/>
<path d="M137.699 8.90337H140.721C141.14 8.90337 141.336 9.09921 141.336 9.51888V16.8211H145.225C147.127 16.8211 147.603 16.6532 148.331 15.702L153.199 9.26708C153.395 8.9873 153.534 8.90337 154.01 8.90337H157.507C157.927 8.90337 158.067 9.29506 157.843 9.57483L152.415 16.5972C151.8 17.4086 151.268 18.0241 150.737 18.4718C151.492 18.9474 152.163 19.5909 152.863 20.4862L158.598 27.7604C158.822 27.9842 158.71 28.4878 158.235 28.4878H154.681C154.234 28.4878 154.066 28.4039 153.87 28.1241L148.694 21.4934C147.967 20.5421 147.407 20.3463 145.589 20.3463H141.336V27.8723C141.336 28.292 141.14 28.4878 140.721 28.4878H137.699C137.279 28.4878 137.083 28.292 137.083 27.8723V9.51888C137.083 9.09921 137.279 8.90337 137.699 8.90337Z" fill="black"/>
<path d="M117.683 8.90337H132.511C132.903 8.90337 133.127 9.09921 133.127 9.51888V12.2327C133.127 12.6244 132.903 12.8482 132.511 12.8482H118.494C117.487 12.8482 117.012 13.3239 117.012 14.359V15.3103C117.012 16.3175 117.459 16.7371 118.494 16.7371H128.958C132.092 16.7371 133.854 18.5277 133.854 21.6612V23.9274C133.854 26.8091 132.12 28.4878 128.902 28.4878H113.402C112.983 28.4878 112.787 28.292 112.787 27.8723V25.1584C112.787 24.7668 112.983 24.5429 113.402 24.5429H128.091C129.07 24.5429 129.574 24.0673 129.574 23.0321V21.885C129.574 20.8778 129.154 20.4582 128.119 20.4582H117.627C114.494 20.4582 112.759 18.6676 112.759 15.5341V13.4637C112.759 10.582 114.466 8.90337 117.683 8.90337Z" fill="black"/>
<path d="M366.462 43.38C367.398 43.38 368.216 43.5614 368.916 43.924C369.624 44.2782 370.168 44.7927 370.548 45.4674C370.936 46.1337 371.13 46.9138 371.13 47.8078C371.13 48.7018 370.936 49.4777 370.548 50.1355C370.168 50.7934 369.624 51.2994 368.916 51.6536C368.216 51.9994 367.398 52.1723 366.462 52.1723H363.59V43.38H366.462ZM366.462 50.9958C367.49 50.9958 368.279 50.7174 368.827 50.1608C369.375 49.6042 369.65 48.8198 369.65 47.8078C369.65 46.7873 369.375 45.9903 368.827 45.4168C368.279 44.8433 367.49 44.5566 366.462 44.5566H365.032V50.9958H366.462Z" fill="black"/>
<path d="M355.488 44.5439V47.1246H358.524V48.3012H355.488V50.9958H358.904V52.1723H354.046V43.3674H358.904V44.5439H355.488Z" fill="black"/>
<path d="M345.944 44.5439V47.1246H348.98V48.3012H345.944V50.9958H349.36V52.1723H344.502V43.3674H349.36V44.5439H345.944Z" fill="black"/>
<path d="M331.327 47.7572C331.327 46.8969 331.525 46.1252 331.922 45.4421C332.327 44.759 332.871 44.2276 333.554 43.8481C334.245 43.4602 335 43.2662 335.818 43.2662C336.754 43.2662 337.585 43.4981 338.31 43.962C339.044 44.4174 339.575 45.0668 339.904 45.9102H338.171C337.944 45.4463 337.627 45.1005 337.222 44.8728C336.818 44.6451 336.349 44.5313 335.818 44.5313C335.236 44.5313 334.718 44.662 334.262 44.9234C333.807 45.1849 333.448 45.5602 333.187 46.0493C332.934 46.5385 332.807 47.1078 332.807 47.7572C332.807 48.4066 332.934 48.9759 333.187 49.465C333.448 49.9542 333.807 50.3337 334.262 50.6036C334.718 50.865 335.236 50.9958 335.818 50.9958C336.349 50.9958 336.818 50.8819 337.222 50.6542C337.627 50.4265 337.944 50.0807 338.171 49.6168H339.904C339.575 50.4602 339.044 51.1096 338.31 51.565C337.585 52.0205 336.754 52.2482 335.818 52.2482C334.992 52.2482 334.237 52.0584 333.554 51.6789C332.871 51.2909 332.327 50.7554 331.922 50.0723C331.525 49.3891 331.327 48.6174 331.327 47.7572Z" fill="black"/>
<path d="M318.633 47.7572C318.633 46.8969 318.831 46.1252 319.228 45.4421C319.632 44.759 320.176 44.2276 320.86 43.8481C321.551 43.4602 322.306 43.2662 323.124 43.2662C324.06 43.2662 324.891 43.4981 325.616 43.962C326.35 44.4174 326.881 45.0668 327.21 45.9102H325.477C325.249 45.4463 324.933 45.1005 324.528 44.8728C324.123 44.6451 323.655 44.5313 323.124 44.5313C322.542 44.5313 322.023 44.662 321.568 44.9234C321.113 45.1849 320.754 45.5602 320.493 46.0493C320.24 46.5385 320.113 47.1078 320.113 47.7572C320.113 48.4066 320.24 48.9759 320.493 49.465C320.754 49.9542 321.113 50.3337 321.568 50.6036C322.023 50.865 322.542 50.9958 323.124 50.9958C323.655 50.9958 324.123 50.8819 324.528 50.6542C324.933 50.4265 325.249 50.0807 325.477 49.6168H327.21C326.881 50.4602 326.35 51.1096 325.616 51.565C324.891 52.0205 324.06 52.2482 323.124 52.2482C322.297 52.2482 321.543 52.0584 320.86 51.6789C320.176 51.2909 319.632 50.7554 319.228 50.0723C318.831 49.3891 318.633 48.6174 318.633 47.7572Z" fill="black"/>
<path d="M308.899 43.38V48.9843C308.899 49.6506 309.072 50.1524 309.418 50.4897C309.772 50.8271 310.261 50.9958 310.885 50.9958C311.518 50.9958 312.007 50.8271 312.353 50.4897C312.707 50.1524 312.884 49.6506 312.884 48.9843V43.38H314.326V48.959C314.326 49.6759 314.17 50.2831 313.858 50.7807C313.546 51.2783 313.129 51.6494 312.606 51.894C312.083 52.1385 311.505 52.2608 310.873 52.2608C310.24 52.2608 309.662 52.1385 309.14 51.894C308.625 51.6494 308.216 51.2783 307.912 50.7807C307.609 50.2831 307.457 49.6759 307.457 48.959V43.38H308.899Z" fill="black"/>
<path d="M299.822 52.2608C299.232 52.2608 298.7 52.1596 298.228 51.9572C297.756 51.7464 297.385 51.4512 297.115 51.0717C296.845 50.6921 296.71 50.2494 296.71 49.7433H298.253C298.287 50.1229 298.435 50.4349 298.696 50.6795C298.966 50.9241 299.341 51.0464 299.822 51.0464C300.32 51.0464 300.708 50.9283 300.986 50.6921C301.264 50.4476 301.403 50.1355 301.403 49.756C301.403 49.4608 301.315 49.2204 301.138 49.0349C300.969 48.8494 300.754 48.706 300.493 48.6048C300.24 48.5036 299.885 48.3939 299.43 48.2759C298.856 48.1241 298.388 47.9722 298.026 47.8204C297.671 47.6602 297.368 47.4156 297.115 47.0867C296.862 46.7578 296.735 46.3192 296.735 45.771C296.735 45.265 296.862 44.8222 297.115 44.4427C297.368 44.0632 297.722 43.7722 298.177 43.5698C298.633 43.3674 299.16 43.2662 299.759 43.2662C300.611 43.2662 301.306 43.4812 301.846 43.9114C302.394 44.3331 302.698 44.915 302.757 45.6572H301.163C301.138 45.3367 300.986 45.0626 300.708 44.8349C300.429 44.6072 300.062 44.4933 299.607 44.4933C299.194 44.4933 298.856 44.5987 298.595 44.8096C298.334 45.0204 298.203 45.324 298.203 45.7204C298.203 45.9903 298.283 46.2138 298.443 46.3909C298.612 46.5596 298.823 46.6945 299.076 46.7957C299.329 46.8969 299.674 47.0066 300.113 47.1246C300.695 47.2849 301.167 47.4451 301.53 47.6054C301.901 47.7656 302.213 48.0144 302.466 48.3518C302.728 48.6807 302.858 49.1235 302.858 49.6801C302.858 50.1271 302.736 50.5488 302.491 50.9452C302.255 51.3415 301.905 51.662 301.441 51.9066C300.986 52.1428 300.446 52.2608 299.822 52.2608Z" fill="black"/>
<path d="M285.54 53.6018H284.097V42.0391H285.54V53.6018Z" fill="black"/>
<path d="M270.433 51.0084H273.406V52.1723H268.991V43.38H270.433V51.0084Z" fill="black"/>
<path d="M261.903 51.0084H264.876V52.1723H260.46V43.38H261.903V51.0084Z" fill="black"/>
<path d="M255.657 43.38V52.1723H254.215V43.38H255.657Z" fill="black"/>
<path d="M248.145 52.1723L244.742 48.2379V52.1723H243.3V43.38H244.742V47.3903L248.158 43.38H249.967L246.146 47.7825L250.03 52.1723H248.145Z" fill="black"/>
<path d="M235.652 52.2608C235.062 52.2608 234.531 52.1596 234.058 51.9572C233.586 51.7464 233.215 51.4512 232.945 51.0717C232.675 50.6921 232.54 50.2494 232.54 49.7433H234.084C234.117 50.1229 234.265 50.4349 234.526 50.6795C234.796 50.9241 235.172 51.0464 235.652 51.0464C236.15 51.0464 236.538 50.9283 236.816 50.6921C237.095 50.4476 237.234 50.1355 237.234 49.756C237.234 49.4608 237.145 49.2204 236.968 49.0349C236.799 48.8494 236.584 48.706 236.323 48.6048C236.07 48.5036 235.716 48.3939 235.26 48.2759C234.687 48.1241 234.219 47.9722 233.856 47.8204C233.502 47.6602 233.198 47.4156 232.945 47.0867C232.692 46.7578 232.566 46.3192 232.566 45.771C232.566 45.265 232.692 44.8222 232.945 44.4427C233.198 44.0632 233.552 43.7722 234.008 43.5698C234.463 43.3674 234.99 43.2662 235.589 43.2662C236.441 43.2662 237.137 43.4812 237.677 43.9114C238.225 44.3331 238.528 44.915 238.587 45.6572H236.993C236.968 45.3367 236.816 45.0626 236.538 44.8349C236.26 44.6072 235.893 44.4933 235.437 44.4933C235.024 44.4933 234.687 44.5987 234.425 44.8096C234.164 45.0204 234.033 45.324 234.033 45.7204C234.033 45.9903 234.113 46.2138 234.273 46.3909C234.442 46.5596 234.653 46.6945 234.906 46.7957C235.159 46.8969 235.505 47.0066 235.943 47.1246C236.525 47.2849 236.998 47.4451 237.36 47.6054C237.731 47.7656 238.043 48.0144 238.296 48.3518C238.558 48.6807 238.689 49.1235 238.689 49.6801C238.689 50.1271 238.566 50.5488 238.322 50.9452C238.086 51.3415 237.736 51.662 237.272 51.9066C236.816 52.1428 236.277 52.2608 235.652 52.2608Z" fill="black"/>
<path d="M228.47 45.9987C228.47 46.4457 228.365 46.8674 228.154 47.2638C227.943 47.6602 227.606 47.9849 227.142 48.2379C226.678 48.4825 226.083 48.6048 225.358 48.6048H223.764V52.1723H222.322V43.38H225.358C226.033 43.38 226.602 43.4981 227.066 43.7343C227.538 43.962 227.888 44.274 228.116 44.6704C228.352 45.0668 228.47 45.5096 228.47 45.9987ZM225.358 47.4283C225.906 47.4283 226.315 47.306 226.585 47.0614C226.855 46.8084 226.99 46.4542 226.99 45.9987C226.99 45.0373 226.446 44.5566 225.358 44.5566H223.764V47.4283H225.358Z" fill="black"/>
<path d="M212.107 43.38V48.9843C212.107 49.6506 212.28 50.1524 212.626 50.4897C212.98 50.8271 213.47 50.9958 214.094 50.9958C214.726 50.9958 215.215 50.8271 215.561 50.4897C215.915 50.1524 216.092 49.6506 216.092 48.9843V43.38H217.535V48.959C217.535 49.6759 217.379 50.2831 217.067 50.7807C216.755 51.2783 216.337 51.6494 215.814 51.894C215.291 52.1385 214.714 52.2608 214.081 52.2608C213.448 52.2608 212.871 52.1385 212.348 51.894C211.833 51.6494 211.424 51.2783 211.121 50.7807C210.817 50.2831 210.665 49.6759 210.665 48.959V43.38H212.107Z" fill="black"/>
<path d="M199.293 53.6018H197.85V42.0391H199.293V53.6018Z" fill="black"/>
<path d="M183.173 44.5439V47.1246H186.209V48.3012H183.173V50.9958H186.589V52.1723H181.731V43.3674H186.589V44.5439H183.173Z" fill="black"/>
<path d="M176.928 52.1723H175.485L171.146 45.6066V52.1723H169.704V43.3674H171.146L175.485 49.9205V43.3674H176.928V52.1723Z" fill="black"/>
<path d="M164.901 43.38V52.1723H163.459V43.38H164.901Z" fill="black"/>
<path d="M159.213 43.38V44.5566H155.481V47.15H158.39V48.3265H155.481V52.1723H154.038V43.38H159.213Z" fill="black"/>
<path d="M145.937 44.5439V47.1246H148.973V48.3012H145.937V50.9958H149.352V52.1723H144.495V43.3674H149.352V44.5439H145.937Z" fill="black"/>
<path d="M135.487 43.38C136.424 43.38 137.242 43.5614 137.942 43.924C138.65 44.2782 139.194 44.7927 139.574 45.4674C139.962 46.1337 140.156 46.9138 140.156 47.8078C140.156 48.7018 139.962 49.4777 139.574 50.1355C139.194 50.7934 138.65 51.2994 137.942 51.6536C137.242 51.9994 136.424 52.1723 135.487 52.1723H132.616V43.38H135.487ZM135.487 50.9958C136.516 50.9958 137.305 50.7174 137.853 50.1608C138.401 49.6042 138.675 48.8198 138.675 47.8078C138.675 46.7873 138.401 45.9903 137.853 45.4168C137.305 44.8433 136.516 44.5566 135.487 44.5566H134.058V50.9958H135.487Z" fill="black"/>
<path d="M124.514 44.5439V47.1246H127.55V48.3012H124.514V50.9958H127.93V52.1723H123.072V43.3674H127.93V44.5439H124.514Z" fill="black"/>
<path d="M116.736 52.1723L114.712 48.6554H113.611V52.1723H112.169V43.38H115.205C115.88 43.38 116.449 43.4981 116.913 43.7343C117.385 43.9704 117.735 44.2867 117.963 44.6831C118.199 45.0795 118.317 45.5222 118.317 46.0114C118.317 46.5849 118.149 47.1078 117.811 47.5801C117.482 48.0439 116.972 48.3602 116.281 48.5289L118.456 52.1723H116.736ZM113.611 47.5042H115.205C115.745 47.5042 116.15 47.3692 116.42 47.0993C116.698 46.8295 116.837 46.4668 116.837 46.0114C116.837 45.556 116.702 45.2017 116.432 44.9487C116.162 44.6873 115.753 44.5566 115.205 44.5566H113.611V47.5042Z" fill="black"/>
<path d="M389.814 3.37622H391.409L392.899 7.44873H392.923L394.397 3.37622H396V9.1085H394.988V4.50163H394.972L393.231 9.1085H392.519L390.802 4.50163H390.786V9.1085H389.814V3.37622Z" fill="black"/>
<path d="M386.37 4.26683H384.613V3.37622H389.148V4.26683H387.391V9.1085H386.37V4.26683Z" fill="black"/>
</svg>
