<svg width="67" height="47" viewBox="0 0 67 47" fill="none" xmlns="http://www.w3.org/2000/svg">
<path d="M44.9818 23.2262C44.783 24.9169 45.6184 29.1134 50.5507 32.3752C46.6127 33.4011 37.9113 37.691 34.5572 46.6494C34.6818 45.9431 34.6153 37.2913 34.5543 31.932C35.1813 32.0245 35.7983 32.2058 36.3862 32.4761C35.5639 30.6879 35.5639 28.6296 36.3862 26.8415C34.598 27.6636 32.54 27.6637 30.7519 26.8415C31.5742 28.6296 31.5742 30.6879 30.7519 32.4761C31.3606 32.1962 32.0006 32.0114 32.6506 31.9221V46.6957C31.1257 42.6515 25.7488 34.1453 16.4406 32.4746C18.3301 31.3807 22.1089 27.9996 22.1089 23.2262C22.1089 23.1467 29.7995 21.1378 33.6448 20.1433L44.9818 23.2262ZM1.78145 21.0414C0.687805 24.7886 1.48315 32.6211 13.4138 33.974C16.9599 34.4051 25.0065 36.9188 28.8243 43.5243C27.1673 41.5015 21.4671 36.8591 13.3144 36.4611C5.85763 35.9637 -4.10434 34.571 1.78145 21.0414ZM65.091 21.0414C70.9768 34.5709 61.0145 35.9637 53.5577 36.4611C45.4052 36.8591 39.7053 41.5015 38.0481 43.5243C41.8659 36.9189 49.9122 34.4052 53.4583 33.974C65.3889 32.6211 66.1847 24.7886 65.091 21.0414ZM64.566 9.20764L49.7682 13.5636V22.7713L33.5799 18.4149L17.1931 22.7713V15.1478L32.0903 9.60351L17.1931 13.5636L2.59373 9.30634L33.5799 0L64.566 9.20764Z" fill="#6730DE"/>
</svg>
