<svg width="91" height="63" viewBox="0 0 91 63" fill="none" xmlns="http://www.w3.org/2000/svg">
<path d="M60.5878 31.2843C60.3199 33.5615 61.4452 39.214 68.0888 43.6074C62.7844 44.9892 51.0642 50.7675 46.5465 62.834C46.7143 61.8825 46.6248 50.2292 46.5425 43.0104C47.387 43.1351 48.2182 43.3792 49.0099 43.7433C47.9025 41.3348 47.9025 38.5623 49.0099 36.1538C46.6014 37.2612 43.8294 37.2613 41.421 36.1538C42.5285 38.5623 42.5285 41.3347 41.421 43.7433C42.2408 43.3663 43.1029 43.1174 43.9783 42.9971V62.8962C41.9244 57.449 34.6821 45.9916 22.1445 43.7413C24.6895 42.2678 29.7793 37.7137 29.7794 31.2843C29.7794 31.1771 40.1381 28.4713 45.3175 27.1318L60.5878 31.2843ZM2.3995 28.3415C0.926431 33.3887 1.99771 43.9386 18.0676 45.7609C22.8439 46.3416 33.6823 49.7273 38.8246 58.6246C36.5927 55.9 28.9148 49.6469 17.9337 49.1109C7.88987 48.4409 -5.52829 46.565 2.3995 28.3415ZM87.6736 28.3415C95.6014 46.5649 82.1827 48.4409 72.139 49.1109C61.158 49.6469 53.4805 55.9 51.2485 58.6246C56.3908 49.7275 67.2286 46.3417 72.005 45.7609C88.0748 43.9386 89.1467 33.3887 87.6736 28.3415ZM86.9665 12.4021L67.0347 18.2694V30.6715L45.23 24.8038L23.158 30.6715V20.4032L43.2237 12.9353L23.158 18.2694L3.49359 12.5351L45.23 0L86.9665 12.4021Z" fill="#6730DE"/>
</svg>
