<svg width="774" height="736" viewBox="0 0 774 736" fill="none" xmlns="http://www.w3.org/2000/svg">
<path d="M708.146 366.514C705.015 393.129 718.166 459.199 795.821 510.552C733.824 526.702 596.83 594.238 544.026 735.276C545.988 724.163 544.948 587.946 543.987 503.569C553.858 505.027 563.572 507.883 572.826 512.139C559.882 483.988 559.882 451.586 572.826 423.435C544.675 436.379 512.273 436.379 484.122 423.435C497.066 451.586 497.066 483.987 484.122 512.139C493.703 507.733 503.778 504.828 514.009 503.421V736.002C490.002 672.333 405.354 538.42 258.811 512.117C288.558 494.895 348.053 441.664 348.053 366.514C348.084 365.254 469.135 333.634 529.665 317.979L708.146 366.514ZM28.0458 332.214C10.8282 391.207 23.35 514.517 211.179 535.817C267.006 542.604 393.686 582.177 453.791 686.171C427.704 654.325 337.965 581.236 209.615 574.972C92.2207 567.141 -64.6164 545.214 28.0458 332.214ZM1024.73 332.214C1117.39 545.214 960.553 567.141 843.158 574.972C714.808 581.236 625.07 654.325 598.982 686.171C659.088 582.177 785.768 542.604 841.595 535.817C1029.42 514.517 1041.95 391.207 1024.73 332.214ZM1016.45 145.882L783.485 214.463V359.42L528.628 290.838L270.643 359.42V239.402L505.175 152.116L270.643 214.463L40.8027 147.44L528.628 0.924805L1016.45 145.882Z" fill="url(#paint0_linear_3023_1381)" fill-opacity="0.07"/>
<defs>
<linearGradient id="paint0_linear_3023_1381" x1="526.387" y1="0.924805" x2="526.387" y2="736.002" gradientUnits="userSpaceOnUse">
<stop stop-color="white"/>
<stop offset="1" stop-color="#999999"/>
</linearGradient>
</defs>
</svg>
