<svg width="543" height="86" viewBox="0 0 543 86" fill="none" xmlns="http://www.w3.org/2000/svg">
<path d="M82.7742 42.7432C82.4082 45.8541 83.9456 53.5768 93.0223 59.5791C85.7758 61.4668 69.7627 69.3605 63.5907 85.8457C63.8199 84.5442 63.6961 68.6221 63.5838 58.7607C64.7382 58.931 65.8746 59.2651 66.9569 59.7627C65.4438 56.4722 65.4438 52.684 66.9569 49.3936C63.6665 50.9065 59.8791 50.9065 56.5887 49.3936C58.1017 52.684 58.1017 56.4722 56.5887 59.7627C57.709 59.2476 58.8866 58.9075 60.0828 58.7432V85.9307C57.2768 78.4887 47.3823 62.8361 30.2537 59.7617C33.7308 57.7486 40.6844 51.5269 40.6844 42.7432C40.6904 42.5953 54.8385 38.8999 61.9129 37.0703L82.7742 42.7432ZM3.27816 38.7188C1.26567 45.6141 2.72915 60.0269 24.6834 62.5166C31.2087 63.3099 46.0154 67.9357 53.0409 80.0908C49.9913 76.3684 39.5025 67.826 24.5008 67.0938C10.7791 66.1784 -7.55268 63.6154 3.27816 38.7188ZM119.778 38.7188C130.609 63.6154 112.277 66.1784 98.5555 67.0938C83.5538 67.826 73.0651 76.3684 70.0155 80.0908C77.0409 67.9357 91.8476 63.3099 98.3729 62.5166C120.327 60.0269 121.791 45.6141 119.778 38.7188ZM118.812 16.9434L91.5819 24.959V41.9023L61.7928 33.8867L31.6385 41.9023V27.874L59.0516 17.6719L31.6385 24.959L4.77327 17.125L61.7928 0L118.812 16.9434Z" fill="white"/>
<path d="M160.777 12.83H181.035C181.57 12.83 181.876 13.0976 181.876 13.6709V17.3785C181.876 17.9137 181.57 18.2194 181.035 18.2194H161.885C160.509 18.2194 159.859 18.8692 159.859 20.2835V21.583C159.859 22.9591 160.471 23.5324 161.885 23.5324H176.18C180.461 23.5324 182.869 25.9787 182.869 30.2596V33.3556C182.869 37.2926 180.5 39.5859 176.104 39.5859H154.929C154.355 39.5859 154.088 39.3184 154.088 38.745V35.0374C154.088 34.5023 154.355 34.1965 154.929 34.1965H174.996C176.333 34.1965 177.021 33.5467 177.021 32.1325V30.5654C177.021 29.1894 176.448 28.616 175.034 28.616H160.7C156.419 28.616 154.05 26.1698 154.05 21.8888V19.0603C154.05 15.1234 156.381 12.83 160.777 12.83ZM188.122 12.83H192.25C192.823 12.83 193.091 13.0976 193.091 13.6709V23.6471H198.404C201.003 23.6471 201.653 23.4177 202.647 22.1182L209.297 13.3269C209.565 12.9447 209.756 12.83 210.406 12.83H215.184C215.757 12.83 215.948 13.3652 215.642 13.7474L208.227 23.3413C207.386 24.4497 206.66 25.2906 205.934 25.9022C206.966 26.552 207.883 27.4311 208.839 28.6542L216.674 38.5921C216.98 38.8979 216.827 39.5859 216.178 39.5859H211.323C210.712 39.5859 210.482 39.4713 210.215 39.089L203.144 30.0303C202.15 28.7307 201.385 28.4631 198.901 28.4631H193.091V38.745C193.091 39.3184 192.823 39.5859 192.25 39.5859H188.122C187.549 39.5859 187.281 39.3184 187.281 38.745V13.6709C187.281 13.0976 187.549 12.83 188.122 12.83ZM220.746 12.83H224.874C225.447 12.83 225.715 13.0976 225.715 13.6709V38.745C225.715 39.3184 225.447 39.5859 224.874 39.5859H220.746C220.172 39.5859 219.905 39.3184 219.905 38.745V13.6709C219.905 13.0976 220.172 12.83 220.746 12.83ZM231.606 12.83H235.734C236.307 12.83 236.575 13.0976 236.575 13.6709V28.9218C236.575 32.9734 237.722 34.1583 241.659 34.1583H257.139C257.674 34.1583 257.98 34.4259 257.98 34.9992V38.745C257.98 39.3184 257.674 39.5859 257.139 39.5859H241.468C233.708 39.5859 230.765 36.8339 230.765 29.4951V13.6709C230.765 13.0976 231.033 12.83 231.606 12.83ZM261.692 12.83H265.82C266.393 12.83 266.661 13.0976 266.661 13.6709V28.9218C266.661 32.9734 267.807 34.1583 271.744 34.1583H287.224C287.759 34.1583 288.065 34.4259 288.065 34.9992V38.745C288.065 39.3184 287.759 39.5859 287.224 39.5859H271.553C263.794 39.5859 260.851 36.8339 260.851 29.4951V13.6709C260.851 13.0976 261.118 12.83 261.692 12.83ZM314.735 12.83H326.507C334.267 12.83 337.21 15.5821 337.21 22.9208V28.8454C337.21 35.0757 335.069 38.0188 329.68 38.745L334.076 44.8224C334.305 45.1665 334.228 45.8162 333.579 45.8162H328.648C328.036 45.8162 327.807 45.6633 327.578 45.3193L323.106 38.9362H314.735C306.976 38.9362 304.032 36.1459 304.032 28.8454V22.9208C304.032 15.6203 306.976 12.83 314.735 12.83ZM309.842 23.3413V28.4249C309.842 32.4383 310.951 33.5467 314.926 33.5467H326.278C330.253 33.5467 331.362 32.4383 331.362 28.4249V23.3413C331.362 19.3279 330.253 18.2194 326.278 18.2194H314.926C310.951 18.2194 309.842 19.3279 309.842 23.3413ZM342.803 12.83H346.931C347.504 12.83 347.772 13.0976 347.772 13.6709V28.9218C347.772 32.9734 348.918 34.1583 352.855 34.1583H363.443C367.38 34.1583 368.489 32.9734 368.489 28.9218V13.6709C368.489 13.0976 368.794 12.83 369.329 12.83H373.496C374.069 12.83 374.337 13.0976 374.337 13.6709V29.4951C374.337 36.8339 371.393 39.5859 363.634 39.5859H352.664C344.905 39.5859 341.962 36.8339 341.962 29.4951V13.6709C341.962 13.0976 342.229 12.83 342.803 12.83ZM389.762 12.83H406.58C407.115 12.83 407.421 13.0976 407.421 13.6709V17.3785C407.421 17.9137 407.115 18.2194 406.58 18.2194H389.8C385.863 18.2194 384.831 19.3279 384.831 23.3413V23.5324H406.35C406.886 23.5324 407.191 23.8 407.191 24.3733V27.7751C407.191 28.3485 406.886 28.616 406.35 28.616H384.831V29.0747C384.831 33.0881 385.863 34.1965 389.8 34.1965H406.58C407.115 34.1965 407.421 34.5023 407.421 35.0374V38.745C407.421 39.3184 407.115 39.5859 406.58 39.5859H389.762C382.003 39.5859 379.059 36.7957 379.059 29.4951V22.9208C379.059 15.6203 382.003 12.83 389.762 12.83ZM418.108 12.83H438.366C438.901 12.83 439.207 13.0976 439.207 13.6709V17.3785C439.207 17.9137 438.901 18.2194 438.366 18.2194H419.217C417.841 18.2194 417.191 18.8692 417.191 20.2835V21.583C417.191 22.9591 417.802 23.5324 419.217 23.5324H433.512C437.793 23.5324 440.201 25.9787 440.201 30.2596V33.3556C440.201 37.2926 437.831 39.5859 433.435 39.5859H412.26C411.687 39.5859 411.419 39.3184 411.419 38.745V35.0374C411.419 34.5023 411.687 34.1965 412.26 34.1965H432.327C433.665 34.1965 434.353 33.5467 434.353 32.1325V30.5654C434.353 29.1894 433.779 28.616 432.365 28.616H418.032C413.751 28.616 411.381 26.1698 411.381 21.8888V19.0603C411.381 15.1234 413.713 12.83 418.108 12.83ZM443.772 12.83H473.662C474.235 12.83 474.541 13.0976 474.541 13.6709V17.4168C474.541 17.9901 474.235 18.2577 473.662 18.2577H461.622V38.745C461.622 39.3184 461.392 39.5859 460.819 39.5859H456.653C456.118 39.5859 455.812 39.3184 455.812 38.745V18.2577H443.772C443.237 18.2577 442.931 17.9901 442.931 17.4168V13.6709C442.931 13.0976 443.237 12.83 443.772 12.83ZM477.562 18.6017H482.761C483.296 18.6017 483.563 18.7546 483.869 19.0603L491.093 25.7875L498.203 19.0603C498.547 18.7546 498.814 18.6017 499.311 18.6017H504.127C504.815 18.6017 504.968 19.2132 504.548 19.5955L494.457 28.9218L504.815 38.5921C505.236 39.0126 505.083 39.5859 504.433 39.5859H499.235C498.738 39.5859 498.432 39.4713 498.126 39.1655L490.291 31.8649L482.57 39.1655C482.264 39.4713 481.996 39.5859 481.499 39.5859H476.645C475.957 39.5859 475.804 39.0126 476.225 38.5921L486.965 28.7689L477.142 19.5955C476.721 19.2132 476.913 18.6017 477.562 18.6017Z" fill="white"/>
<path d="M159.483 70.9922L156.717 66.1875H155.214V70.9922H153.244V58.9804H157.391C158.313 58.9804 159.091 59.1417 159.725 59.4643C160.37 59.7869 160.848 60.219 161.159 60.7606C161.482 61.3021 161.643 61.907 161.643 62.5753C161.643 63.3588 161.413 64.0732 160.952 64.7184C160.502 65.3521 159.805 65.7842 158.861 66.0146L161.833 70.9922H159.483ZM155.214 64.6147H157.391C158.129 64.6147 158.682 64.4303 159.051 64.0616C159.431 63.6929 159.621 63.1975 159.621 62.5753C159.621 61.9531 159.437 61.4692 159.068 61.1235C158.699 60.7663 158.14 60.5877 157.391 60.5877H155.214V64.6147ZM170.109 60.5704V64.0962H174.257V65.7035H170.109V69.3849H174.775V70.9922H168.139V58.9631H174.775V60.5704H170.109ZM185.101 58.9804C186.38 58.9804 187.497 59.2281 188.454 59.7236C189.421 60.2075 190.165 60.9103 190.683 61.8321C191.213 62.7424 191.478 63.8082 191.478 65.0295C191.478 66.2508 191.213 67.3109 190.683 68.2096C190.165 69.1083 189.421 69.7996 188.454 70.2836C187.497 70.756 186.38 70.9922 185.101 70.9922H181.177V58.9804H185.101ZM185.101 69.3849C186.506 69.3849 187.584 69.0046 188.333 68.2442C189.082 67.4837 189.456 66.4121 189.456 65.0295C189.456 63.6353 189.082 62.5465 188.333 61.763C187.584 60.9795 186.506 60.5877 185.101 60.5877H183.148V69.3849H185.101ZM199.376 60.5704V64.0962H203.524V65.7035H199.376V69.3849H204.043V70.9922H197.406V58.9631H204.043V60.5704H199.376ZM217.514 58.9804V60.5877H212.415V64.1308H216.39V65.7381H212.415V70.9922H210.445V58.9804H217.514ZM225.285 58.9804V70.9922H223.315V58.9804H225.285ZM241.715 70.9922H239.745L233.817 62.0222V70.9922H231.847V58.9631H233.817L239.745 67.9158V58.9631H241.715V70.9922ZM250.248 60.5704V64.0962H254.396V65.7035H250.248V69.3849H254.915V70.9922H248.278V58.9631H254.915V60.5704H250.248ZM272.27 72.9452H270.3V57.1484H272.27V72.9452ZM289.778 58.9804V66.6368C289.778 67.5471 290.014 68.2326 290.486 68.6935C290.97 69.1544 291.638 69.3849 292.491 69.3849C293.355 69.3849 294.024 69.1544 294.496 68.6935C294.98 68.2326 295.222 67.5471 295.222 66.6368V58.9804H297.192V66.6023C297.192 67.5816 296.979 68.4112 296.553 69.091C296.126 69.7708 295.556 70.2778 294.842 70.612C294.127 70.9461 293.338 71.1132 292.474 71.1132C291.61 71.1132 290.82 70.9461 290.106 70.612C289.403 70.2778 288.844 69.7708 288.43 69.091C288.015 68.4112 287.807 67.5816 287.807 66.6023V58.9804H289.778ZM312.132 62.558C312.132 63.1687 311.988 63.7448 311.7 64.2863C311.412 64.8279 310.951 65.2715 310.317 65.6171C309.684 65.9513 308.871 66.1183 307.881 66.1183H305.703V70.9922H303.733V58.9804H307.881C308.802 58.9804 309.58 59.1417 310.214 59.4643C310.859 59.7754 311.337 60.2017 311.648 60.7433C311.971 61.2848 312.132 61.8897 312.132 62.558ZM307.881 64.511C308.629 64.511 309.188 64.3439 309.557 64.0098C309.926 63.6641 310.11 63.1802 310.11 62.558C310.11 61.2445 309.367 60.5877 307.881 60.5877H305.703V64.511H307.881ZM321.944 71.1132C321.138 71.1132 320.412 70.9749 319.767 70.6984C319.121 70.4103 318.614 70.007 318.246 69.4886C317.877 68.9701 317.693 68.3651 317.693 67.6738H319.801C319.847 68.1923 320.049 68.6186 320.406 68.9528C320.775 69.2869 321.288 69.454 321.944 69.454C322.624 69.454 323.154 69.2927 323.534 68.9701C323.915 68.6359 324.105 68.2096 324.105 67.6911C324.105 67.2878 323.984 66.9594 323.742 66.706C323.511 66.4525 323.218 66.2566 322.86 66.1183C322.515 65.9801 322.031 65.8303 321.409 65.669C320.625 65.4616 319.986 65.2542 319.49 65.0468C319.006 64.8279 318.591 64.4937 318.246 64.0444C317.9 63.595 317.727 62.9958 317.727 62.2469C317.727 61.5556 317.9 60.9507 318.246 60.4322C318.591 59.9137 319.075 59.5162 319.698 59.2396C320.32 58.9631 321.04 58.8248 321.858 58.8248C323.022 58.8248 323.972 59.1187 324.71 59.7063C325.459 60.2824 325.873 61.0774 325.954 62.0914H323.776C323.742 61.6535 323.534 61.279 323.154 60.968C322.774 60.6569 322.273 60.5013 321.651 60.5013C321.086 60.5013 320.625 60.6453 320.268 60.9334C319.911 61.2214 319.732 61.6362 319.732 62.1778C319.732 62.5465 319.842 62.8518 320.06 63.0938C320.291 63.3242 320.579 63.5086 320.925 63.6468C321.27 63.7851 321.743 63.9349 322.342 64.0962C323.137 64.3151 323.782 64.534 324.278 64.753C324.785 64.9719 325.211 65.3118 325.557 65.7727C325.914 66.222 326.092 66.8269 326.092 67.5874C326.092 68.1981 325.925 68.7742 325.591 69.3157C325.268 69.8573 324.79 70.2951 324.157 70.6292C323.534 70.9519 322.797 71.1132 321.944 71.1132ZM339.012 70.9922L334.363 65.6171V70.9922H332.392V58.9804H334.363V64.4592L339.029 58.9804H341.5L336.281 64.9949L341.587 70.9922H339.012ZM349.275 58.9804V70.9922H347.304V58.9804H349.275ZM357.807 69.4021H361.868V70.9922H355.837V58.9804H357.807V69.4021ZM369.462 69.4021H373.523V70.9922H367.491V58.9804H369.462V69.4021ZM390.099 72.9452H388.129V57.1484H390.099V72.9452ZM409.612 71.1132C408.805 71.1132 408.079 70.9749 407.434 70.6984C406.789 70.4103 406.282 70.007 405.913 69.4886C405.545 68.9701 405.36 68.3651 405.36 67.6738H407.469C407.515 68.1923 407.716 68.6186 408.074 68.9528C408.442 69.2869 408.955 69.454 409.612 69.454C410.292 69.454 410.822 69.2927 411.202 68.9701C411.582 68.6359 411.772 68.2096 411.772 67.6911C411.772 67.2878 411.651 66.9594 411.409 66.706C411.179 66.4525 410.885 66.2566 410.528 66.1183C410.182 65.9801 409.698 65.8303 409.076 65.669C408.293 65.4616 407.653 65.2542 407.158 65.0468C406.674 64.8279 406.259 64.4937 405.913 64.0444C405.568 63.595 405.395 62.9958 405.395 62.2469C405.395 61.5556 405.568 60.9507 405.913 60.4322C406.259 59.9137 406.743 59.5162 407.365 59.2396C407.987 58.9631 408.707 58.8248 409.525 58.8248C410.689 58.8248 411.64 59.1187 412.377 59.7063C413.126 60.2824 413.541 61.0774 413.622 62.0914H411.444C411.409 61.6535 411.202 61.279 410.822 60.968C410.441 60.6569 409.94 60.5013 409.318 60.5013C408.753 60.5013 408.293 60.6453 407.935 60.9334C407.578 61.2214 407.4 61.6362 407.4 62.1778C407.4 62.5465 407.509 62.8518 407.728 63.0938C407.958 63.3242 408.246 63.5086 408.592 63.6468C408.938 63.7851 409.41 63.9349 410.009 64.0962C410.804 64.3151 411.45 64.534 411.945 64.753C412.452 64.9719 412.878 65.3118 413.224 65.7727C413.581 66.222 413.76 66.8269 413.76 67.5874C413.76 68.1981 413.593 68.7742 413.259 69.3157C412.936 69.8573 412.458 70.2951 411.824 70.6292C411.202 70.9519 410.464 71.1132 409.612 71.1132ZM422.013 58.9804V66.6368C422.013 67.5471 422.249 68.2326 422.721 68.6935C423.205 69.1544 423.874 69.3849 424.726 69.3849C425.59 69.3849 426.259 69.1544 426.731 68.6935C427.215 68.2326 427.457 67.5471 427.457 66.6368V58.9804H429.427V66.6023C429.427 67.5816 429.214 68.4112 428.788 69.091C428.361 69.7708 427.791 70.2778 427.077 70.612C426.362 70.9461 425.573 71.1132 424.709 71.1132C423.845 71.1132 423.056 70.9461 422.341 70.612C421.638 70.2778 421.079 69.7708 420.665 69.091C420.25 68.4112 420.042 67.5816 420.042 66.6023V58.9804H422.013ZM435.311 64.9604C435.311 63.7851 435.582 62.7308 436.123 61.7975C436.676 60.8643 437.419 60.1384 438.353 59.6199C439.298 59.0898 440.329 58.8248 441.446 58.8248C442.725 58.8248 443.86 59.1417 444.851 59.7754C445.854 60.3976 446.58 61.2848 447.029 62.437H444.661C444.35 61.8033 443.918 61.3309 443.365 61.0198C442.812 60.7087 442.172 60.5532 441.446 60.5532C440.651 60.5532 439.943 60.7317 439.321 61.0889C438.698 61.4461 438.209 61.9589 437.852 62.6271C437.506 63.2954 437.333 64.0732 437.333 64.9604C437.333 65.8476 437.506 66.6253 437.852 67.2936C438.209 67.9619 438.698 68.4804 439.321 68.8491C439.943 69.2063 440.651 69.3849 441.446 69.3849C442.172 69.3849 442.812 69.2293 443.365 68.9182C443.918 68.6071 444.35 68.1347 444.661 67.501H447.029C446.58 68.6532 445.854 69.5404 444.851 70.1626C443.86 70.7848 442.725 71.0959 441.446 71.0959C440.317 71.0959 439.286 70.8366 438.353 70.3181C437.419 69.7881 436.676 69.0565 436.123 68.1232C435.582 67.1899 435.311 66.1356 435.311 64.9604ZM452.654 64.9604C452.654 63.7851 452.924 62.7308 453.466 61.7975C454.019 60.8643 454.762 60.1384 455.695 59.6199C456.64 59.0898 457.671 58.8248 458.789 58.8248C460.068 58.8248 461.203 59.1417 462.194 59.7754C463.196 60.3976 463.922 61.2848 464.372 62.437H462.004C461.693 61.8033 461.261 61.3309 460.707 61.0198C460.154 60.7087 459.515 60.5532 458.789 60.5532C457.994 60.5532 457.285 60.7317 456.663 61.0889C456.041 61.4461 455.551 61.9589 455.194 62.6271C454.848 63.2954 454.676 64.0732 454.676 64.9604C454.676 65.8476 454.848 66.6253 455.194 67.2936C455.551 67.9619 456.041 68.4804 456.663 68.8491C457.285 69.2063 457.994 69.3849 458.789 69.3849C459.515 69.3849 460.154 69.2293 460.707 68.9182C461.261 68.6071 461.693 68.1347 462.004 67.501H464.372C463.922 68.6532 463.196 69.5404 462.194 70.1626C461.203 70.7848 460.068 71.0959 458.789 71.0959C457.66 71.0959 456.629 70.8366 455.695 70.3181C454.762 69.7881 454.019 69.0565 453.466 68.1232C452.924 67.1899 452.654 66.1356 452.654 64.9604ZM472.623 60.5704V64.0962H476.771V65.7035H472.623V69.3849H477.29V70.9922H470.653V58.9631H477.29V60.5704H472.623ZM485.662 60.5704V64.0962H489.81V65.7035H485.662V69.3849H490.328V70.9922H483.692V58.9631H490.328V60.5704H485.662ZM500.653 58.9804C501.932 58.9804 503.05 59.2281 504.006 59.7236C504.974 60.2075 505.717 60.9103 506.236 61.8321C506.766 62.7424 507.031 63.8082 507.031 65.0295C507.031 66.2508 506.766 67.3109 506.236 68.2096C505.717 69.1083 504.974 69.7996 504.006 70.2836C503.05 70.756 501.932 70.9922 500.653 70.9922H496.73V58.9804H500.653ZM500.653 69.3849C502.059 69.3849 503.136 69.0046 503.885 68.2442C504.634 67.4837 505.009 66.4121 505.009 65.0295C505.009 63.6353 504.634 62.5465 503.885 61.763C503.136 60.9795 502.059 60.5877 500.653 60.5877H498.7V69.3849H500.653Z" fill="white"/>
<path d="M527.853 5.7682H525.452V4.55147H531.647V5.7682H529.246V12.3828H527.853V5.7682ZM532.558 4.55147H534.737L536.772 10.1153H536.805L538.818 4.55147H541.009V12.3828H539.626V6.08898H539.604L537.226 12.3828H536.252L533.907 6.08898H533.885V12.3828H532.558V4.55147Z" fill="white"/>
</svg>
