<svg width="710" height="710" viewBox="0 0 710 710" fill="none" xmlns="http://www.w3.org/2000/svg">
<path d="M710 543.008H0V543.363H710V543.008Z" fill="#EBEBEB"/>
<path d="M233.718 564.905H186.688V565.26H233.718V564.905Z" fill="#EBEBEB"/>
<path d="M367.551 561.056H355.211V561.411H367.551V561.056Z" fill="#EBEBEB"/>
<path d="M101.742 555.064H74.4922V555.419H101.742V555.064Z" fill="#EBEBEB"/>
<path d="M590.409 552.678H553.375V553.033H590.409V552.678Z" fill="#EBEBEB"/>
<path d="M540.722 552.678H507.438V553.033H540.722V552.678Z" fill="#EBEBEB"/>
<path d="M638.869 569.718H505.844V570.073H638.869V569.718Z" fill="#EBEBEB"/>
<path d="M336.54 479.676H62.3518C60.2038 479.672 58.1451 478.816 56.6276 477.296C55.1101 475.776 54.2578 473.716 54.2578 471.568V86.1373C54.2765 84.0017 55.1371 81.9596 56.6526 80.4548C58.1681 78.9499 60.2161 78.1038 62.3518 78.1001H336.54C338.69 78.1001 340.752 78.9544 342.273 80.4749C343.794 81.9955 344.648 84.0579 344.648 86.2083V471.568C344.648 473.718 343.794 475.781 342.273 477.301C340.752 478.822 338.69 479.676 336.54 479.676ZM62.3518 78.3841C60.298 78.3879 58.3296 79.2064 56.8787 80.66C55.4277 82.1136 54.6128 84.0835 54.6128 86.1373V471.568C54.6128 473.622 55.4277 475.592 56.8787 477.045C58.3296 478.499 60.298 479.317 62.3518 479.321H336.54C338.595 479.317 340.565 478.499 342.018 477.046C343.471 475.593 344.289 473.623 344.293 471.568V86.1373C344.289 84.0822 343.471 82.1123 342.018 80.6591C340.565 79.2059 338.595 78.3879 336.54 78.3841H62.3518Z" fill="#EBEBEB"/>
<path d="M643.701 479.676H369.499C367.35 479.672 365.289 478.817 363.77 477.297C362.25 475.777 361.394 473.717 361.391 471.568V86.1373C361.413 84.0004 362.277 81.9583 363.795 80.4539C365.312 78.9494 367.362 78.1037 369.499 78.1001H643.701C645.834 78.1075 647.879 78.9553 649.391 80.4598C650.903 81.9642 651.762 84.0041 651.781 86.1373V471.568C651.781 473.713 650.93 475.771 649.416 477.291C647.901 478.811 645.846 479.669 643.701 479.676ZM369.499 78.3841C367.444 78.3879 365.474 79.2059 364.021 80.6591C362.567 82.1123 361.749 84.0822 361.746 86.1373V471.568C361.749 473.623 362.567 475.593 364.021 477.046C365.474 478.499 367.444 479.317 369.499 479.321H643.701C645.756 479.317 647.726 478.499 649.179 477.046C650.632 475.593 651.45 473.623 651.454 471.568V86.1373C651.45 84.0822 650.632 82.1123 649.179 80.6591C647.726 79.2059 645.756 78.3879 643.701 78.3841H369.499Z" fill="#EBEBEB"/>
<path d="M452.411 538.776H485.852V392.46H452.411V538.776Z" fill="#F0F0F0"/>
<path d="M332.206 543.008H479.445V538.776H332.206V543.008Z" fill="#F0F0F0"/>
<path d="M452.409 392.46H325.773V538.777H452.409V392.46Z" fill="#F5F5F5"/>
<path d="M439.259 400.667H338.922V462.352H439.259V400.667Z" fill="#F0F0F0"/>
<path d="M439.259 468.884H338.922V530.569H439.259V468.884Z" fill="#F0F0F0"/>
<path d="M415.111 411.417H363.096C361.47 411.419 359.859 411.099 358.357 410.476C356.854 409.853 355.49 408.939 354.341 407.787C353.193 406.635 352.284 405.268 351.667 403.763C351.049 402.258 350.735 400.646 350.742 399.02H427.422C427.43 400.643 427.117 402.251 426.502 403.753C425.887 405.255 424.982 406.621 423.838 407.772C422.695 408.924 421.335 409.838 419.838 410.464C418.34 411.089 416.734 411.413 415.111 411.417Z" fill="#F5F5F5"/>
<path d="M415.112 479.634H363.098C359.825 479.634 356.686 478.333 354.372 476.019C352.058 473.705 350.758 470.566 350.758 467.294H427.438C427.438 470.564 426.14 473.701 423.829 476.014C421.518 478.328 418.382 479.63 415.112 479.634Z" fill="#F5F5F5"/>
<path d="M588.989 538.776H622.43V392.46H588.989V538.776Z" fill="#F0F0F0"/>
<path d="M468.768 543.008H616.008V538.776H468.768V543.008Z" fill="#F0F0F0"/>
<path d="M588.987 392.46H462.352V538.777H588.987V392.46Z" fill="#F5F5F5"/>
<path d="M575.837 400.667H475.5V462.352H575.837V400.667Z" fill="#F0F0F0"/>
<path d="M575.837 468.884H475.5V530.569H575.837V468.884Z" fill="#F0F0F0"/>
<path d="M551.667 411.417H499.652C496.38 411.417 493.241 410.117 490.927 407.802C488.613 405.488 487.312 402.35 487.312 399.077H563.993C563.993 402.347 562.694 405.484 560.383 407.797C558.072 410.111 554.937 411.413 551.667 411.417Z" fill="#F5F5F5"/>
<path d="M551.667 479.634H499.652C496.38 479.634 493.241 478.333 490.927 476.019C488.613 473.705 487.312 470.566 487.312 467.294H563.993C563.993 470.564 562.694 473.701 560.383 476.014C558.072 478.328 554.937 479.63 551.667 479.634Z" fill="#F5F5F5"/>
<path d="M158.217 195.875H215.5V129.66H158.217V195.875Z" fill="#E6E6E6"/>
<path d="M151.688 195.875H213.969V129.66H151.688V195.875Z" fill="#F5F5F5"/>
<path d="M208.742 190.664V134.886H156.898V190.664H208.742Z" fill="white"/>
<path d="M196.187 177.145V175.114C196.183 168.032 193.368 161.24 188.359 156.232C183.351 151.223 176.559 148.408 169.477 148.404V150.435C169.477 157.519 172.291 164.313 177.3 169.322C182.309 174.331 189.103 177.145 196.187 177.145Z" fill="#F5F5F5"/>
<path d="M407.031 320.849H622.445V119.351L407.031 119.351V320.849Z" fill="#E6E6E6"/>
<path d="M400.356 320.849H619.32V119.351L400.356 119.351V320.849Z" fill="#F0F0F0"/>
<path d="M407.031 328.034H622.445V320.849H407.031V328.034Z" fill="#E6E6E6"/>
<path d="M389.224 328.034H608.188V320.849H389.224V328.034Z" fill="#F0F0F0"/>
<path d="M609.961 310.029V130.172H409.684V310.029H609.961Z" fill="#FAFAFA"/>
<path d="M553.177 310.043L519.821 130.171H464.867L498.223 310.043H553.177Z" fill="white"/>
<path d="M605.645 249.011C605.835 248.997 606.011 248.908 606.136 248.765C606.261 248.621 606.324 248.434 606.313 248.245V137.215C606.313 137.038 606.242 136.868 606.117 136.743C605.992 136.618 605.822 136.547 605.645 136.547C605.468 136.547 605.299 136.618 605.173 136.743C605.048 136.868 604.978 137.038 604.978 137.215V248.245C604.966 248.434 605.03 248.621 605.154 248.765C605.279 248.908 605.456 248.997 605.645 249.011Z" fill="#F0F0F0"/>
<path d="M486.41 310.043L453.068 130.171H431.641L464.982 310.043H486.41Z" fill="white"/>
<path d="M410.875 310.029V130.171H409.682V310.029H410.875Z" fill="#E6E6E6"/>
<path opacity="0.4" d="M398.141 144.017H613.54L614.407 134.389H398.993L398.141 144.017Z" fill="#E6E6E6"/>
<path opacity="0.4" d="M398.141 155.107H613.54L614.407 145.465H398.993L398.141 155.107Z" fill="#E6E6E6"/>
<path opacity="0.4" d="M398.141 166.183H613.54L614.407 156.555H398.993L398.141 166.183Z" fill="#E6E6E6"/>
<path opacity="0.4" d="M398.141 177.273H613.54L614.407 167.631H398.993L398.141 177.273Z" fill="#E6E6E6"/>
<path opacity="0.4" d="M398.141 188.349H613.54L614.407 178.721H398.993L398.141 188.349Z" fill="#E6E6E6"/>
<path opacity="0.4" d="M398.141 199.439H613.54L614.407 189.797H398.993L398.141 199.439Z" fill="#E6E6E6"/>
<path opacity="0.4" d="M398.141 210.515H613.54L614.407 200.887H398.993L398.141 210.515Z" fill="#E6E6E6"/>
<path opacity="0.4" d="M398.141 221.605H613.54L614.407 211.963H398.993L398.141 221.605Z" fill="#E6E6E6"/>
<path opacity="0.4" d="M398.141 232.681H613.54L614.407 223.054H398.993L398.141 232.681Z" fill="#E6E6E6"/>
<path d="M117.602 303.894H162.289V252.618H117.602V303.894Z" fill="#E6E6E6"/>
<path d="M112.552 303.894H160.789V252.618H112.552V303.894Z" fill="#F5F5F5"/>
<path d="M156.75 299.847V256.651H116.592V299.847H156.75Z" fill="white"/>
<path d="M147.015 279.044V277.468C147.015 276.109 146.748 274.764 146.227 273.509C145.707 272.254 144.944 271.113 143.983 270.153C143.021 269.193 141.88 268.432 140.624 267.913C139.368 267.395 138.022 267.129 136.664 267.13C133.932 267.145 131.317 268.241 129.391 270.178C127.464 272.115 126.383 274.736 126.383 277.468V279.044C126.383 281.786 127.472 284.415 129.411 286.354C131.349 288.293 133.979 289.382 136.72 289.382C139.455 289.371 142.073 288.276 144.003 286.339C145.932 284.401 147.015 281.779 147.015 279.044Z" fill="#F5F5F5"/>
<path d="M229.064 285.52H290.422V214.832H229.064V285.52Z" fill="#E6E6E6"/>
<path d="M222.102 285.52H288.586V214.832H222.102V285.52Z" fill="#F5F5F5"/>
<path d="M283.023 279.967V220.427H227.672V279.967H283.023Z" fill="white"/>
<path d="M257.659 239.142L268.167 257.347C268.401 257.753 268.525 258.213 268.525 258.682C268.524 259.151 268.401 259.611 268.166 260.017C267.932 260.423 267.594 260.76 267.188 260.994C266.782 261.228 266.321 261.352 265.852 261.351H244.836C244.367 261.352 243.907 261.228 243.501 260.994C243.094 260.76 242.757 260.423 242.522 260.017C242.288 259.611 242.164 259.151 242.164 258.682C242.164 258.213 242.287 257.753 242.522 257.347L253.03 239.142C253.267 238.739 253.605 238.404 254.011 238.172C254.417 237.939 254.876 237.817 255.344 237.817C255.812 237.817 256.272 237.939 256.678 238.172C257.084 238.404 257.422 238.739 257.659 239.142Z" fill="#F5F5F5"/>
<path d="M127.83 542.994H161.555V436.664H127.83L127.83 542.994Z" fill="#E6E6E6"/>
<path d="M134.232 543.008H127.828V524.79H140.949L134.232 543.008Z" fill="#F0F0F0"/>
<path d="M253.853 542.994H287.578V436.664H253.853V542.994Z" fill="#E6E6E6"/>
<path d="M127.84 531.819H259.445V436.664H127.84V531.819Z" fill="#F0F0F0"/>
<path d="M132.797 442.643V509.056H191.485V442.643H132.797Z" fill="#E6E6E6"/>
<path d="M195.789 442.643V509.056H254.478V442.643H195.789Z" fill="#E6E6E6"/>
<path d="M219.334 447.74H230.936C233.428 447.748 235.895 447.248 238.187 446.272C240.479 445.295 242.549 443.862 244.27 442.06H205.93C207.658 443.872 209.739 445.311 212.044 446.288C214.35 447.265 216.831 447.759 219.334 447.74Z" fill="#F0F0F0"/>
<path d="M155.742 447.74H167.358C169.849 447.747 172.316 447.247 174.608 446.27C176.901 445.294 178.97 443.862 180.692 442.06H142.352C144.079 443.869 146.158 445.306 148.46 446.283C150.763 447.26 153.241 447.756 155.742 447.74Z" fill="#F0F0F0"/>
<path d="M253.045 543.008H259.449V524.79H246.328L253.045 543.008Z" fill="#F0F0F0"/>
<path d="M218.328 422.422C218.325 423.869 218.752 425.284 219.554 426.488C220.356 427.693 221.497 428.632 222.833 429.188C224.169 429.744 225.64 429.891 227.059 429.61C228.479 429.329 229.783 428.634 230.807 427.612C231.831 426.59 232.529 425.287 232.813 423.868C233.096 422.449 232.952 420.978 232.399 419.641C231.846 418.303 230.908 417.16 229.705 416.356C228.503 415.552 227.088 415.123 225.641 415.123C223.705 415.127 221.849 415.896 220.479 417.264C219.109 418.631 218.336 420.486 218.328 422.422Z" fill="#E0E0E0"/>
<path d="M228.947 424.978C232.978 424.978 236.246 421.71 236.246 417.679C236.246 413.648 232.978 410.38 228.947 410.38C224.916 410.38 221.648 413.648 221.648 417.679C221.648 421.71 224.916 424.978 228.947 424.978Z" fill="#E0E0E0"/>
<path d="M181.758 423.6C181.758 425.044 182.186 426.455 182.988 427.655C183.79 428.856 184.93 429.791 186.263 430.344C187.597 430.896 189.065 431.04 190.481 430.759C191.896 430.477 193.197 429.782 194.218 428.761C195.238 427.741 195.934 426.44 196.215 425.024C196.497 423.608 196.352 422.141 195.8 420.807C195.247 419.473 194.312 418.334 193.112 417.532C191.911 416.73 190.5 416.302 189.057 416.302C187.121 416.302 185.264 417.07 183.896 418.439C182.527 419.808 181.758 421.665 181.758 423.6Z" fill="#E0E0E0"/>
<path d="M238.718 427.832C243.667 427.832 247.678 423.82 247.678 418.872C247.678 413.923 243.667 409.912 238.718 409.912C233.769 409.912 229.758 413.923 229.758 418.872C229.758 423.82 233.769 427.832 238.718 427.832Z" fill="#E0E0E0"/>
<path d="M212.008 410.622C212.005 412.394 212.528 414.128 213.511 415.603C214.494 417.079 215.892 418.229 217.529 418.91C219.166 419.59 220.968 419.77 222.707 419.425C224.446 419.081 226.044 418.229 227.299 416.977C228.553 415.724 229.408 414.128 229.755 412.389C230.102 410.651 229.925 408.848 229.248 407.21C228.57 405.572 227.421 404.172 225.948 403.187C224.474 402.201 222.741 401.676 220.968 401.676C218.595 401.679 216.32 402.623 214.641 404.299C212.962 405.976 212.015 408.249 212.008 410.622Z" fill="#E0E0E0"/>
<path d="M197.805 412.908C197.802 414.68 198.325 416.414 199.308 417.89C200.291 419.365 201.689 420.516 203.326 421.196C204.963 421.876 206.765 422.056 208.504 421.712C210.243 421.368 211.841 420.515 213.096 419.263C214.35 418.01 215.205 416.414 215.552 414.675C215.899 412.937 215.722 411.134 215.044 409.496C214.367 407.858 213.218 406.458 211.744 405.473C210.271 404.488 208.538 403.962 206.765 403.962C204.391 403.962 202.114 404.904 200.434 406.581C198.754 408.258 197.808 410.534 197.805 412.908Z" fill="#E0E0E0"/>
<path d="M203.812 420.135C203.812 421.821 204.312 423.468 205.248 424.869C206.185 426.27 207.515 427.362 209.072 428.007C210.629 428.652 212.342 428.821 213.995 428.492C215.647 428.163 217.166 427.352 218.357 426.16C219.549 424.968 220.36 423.45 220.689 421.798C221.018 420.145 220.849 418.432 220.204 416.875C219.559 415.318 218.467 413.988 217.066 413.051C215.665 412.115 214.018 411.615 212.332 411.615C210.073 411.615 207.906 412.513 206.308 414.111C204.71 415.709 203.812 417.876 203.812 420.135Z" fill="#E0E0E0"/>
<path d="M188.984 419.582C188.984 421.402 189.524 423.181 190.535 424.694C191.546 426.207 192.983 427.386 194.665 428.083C196.346 428.779 198.196 428.962 199.981 428.607C201.766 428.251 203.406 427.375 204.692 426.088C205.979 424.801 206.856 423.162 207.211 421.377C207.566 419.592 207.384 417.742 206.687 416.06C205.991 414.379 204.811 412.942 203.298 411.931C201.785 410.92 200.006 410.38 198.186 410.38C195.746 410.38 193.405 411.35 191.679 413.075C189.954 414.801 188.984 417.141 188.984 419.582Z" fill="#E0E0E0"/>
<path d="M252.998 422.422C252.998 422.422 252.004 436.622 213.565 436.622C175.125 436.622 174.117 422.422 174.117 422.422H252.998Z" fill="#F0F0F0"/>
<path d="M355.003 607.135C507.061 607.135 630.327 599.938 630.327 591.061C630.327 582.183 507.061 574.986 355.003 574.986C202.946 574.986 79.6797 582.183 79.6797 591.061C79.6797 599.938 202.946 607.135 355.003 607.135Z" fill="#F5F5F5"/>
<path d="M437.034 170.258C435.879 166.442 434.348 162.751 432.462 159.239L435.302 149.938L416.941 131.563L407.64 134.403C404.128 132.517 400.436 130.985 396.621 129.831L392.048 121.311H366.062L361.504 129.831C357.688 130.983 353.996 132.514 350.485 134.403L341.184 131.563L322.809 149.938L325.649 159.239C323.774 162.754 322.247 166.445 321.091 170.258L312.5 174.83V200.816L321.091 205.375C322.244 209.189 323.771 212.879 325.649 216.394L322.809 225.695L341.184 244.07L350.485 241.23C353.999 243.108 357.69 244.634 361.504 245.788L366.062 254.308H392.048L396.621 245.788C400.434 244.632 404.124 243.105 407.64 241.23L416.941 244.07L435.316 225.695L432.476 216.394C434.364 212.883 435.896 209.191 437.048 205.375L445.639 200.816V174.83L437.034 170.258ZM379.055 224.729C371.753 224.729 364.615 222.564 358.544 218.507C352.472 214.45 347.74 208.684 344.946 201.938C342.151 195.192 341.42 187.768 342.845 180.606C344.269 173.445 347.786 166.866 352.949 161.703C358.112 156.539 364.691 153.023 371.853 151.599C379.014 150.174 386.438 150.905 393.184 153.7C399.93 156.494 405.696 161.226 409.753 167.297C413.81 173.369 415.975 180.507 415.975 187.809C415.975 197.601 412.086 206.992 405.162 213.916C398.238 220.839 388.847 224.729 379.055 224.729Z" fill="#6730DE"/>
<path opacity="0.2" d="M437.034 170.258C435.879 166.442 434.348 162.751 432.462 159.239L435.302 149.938L416.941 131.563L407.64 134.403C404.128 132.517 400.436 130.985 396.621 129.831L392.048 121.311H366.062L361.504 129.831C357.688 130.983 353.996 132.514 350.485 134.403L341.184 131.563L322.809 149.938L325.649 159.239C323.774 162.754 322.247 166.445 321.091 170.258L312.5 174.83V200.816L321.091 205.375C322.244 209.189 323.771 212.879 325.649 216.394L322.809 225.695L341.184 244.07L350.485 241.23C353.999 243.108 357.69 244.634 361.504 245.788L366.062 254.308H392.048L396.621 245.788C400.434 244.632 404.124 243.105 407.64 241.23L416.941 244.07L435.316 225.695L432.476 216.394C434.364 212.883 435.896 209.191 437.048 205.375L445.639 200.816V174.83L437.034 170.258ZM379.055 224.729C371.753 224.729 364.615 222.564 358.544 218.507C352.472 214.45 347.74 208.684 344.946 201.938C342.151 195.192 341.42 187.768 342.845 180.606C344.269 173.445 347.786 166.866 352.949 161.703C358.112 156.539 364.691 153.023 371.853 151.599C379.014 150.174 386.438 150.905 393.184 153.7C399.93 156.494 405.696 161.226 409.753 167.297C413.81 173.369 415.975 180.507 415.975 187.809C415.975 197.601 412.086 206.992 405.162 213.916C398.238 220.839 388.847 224.729 379.055 224.729Z" fill="white"/>
<path d="M379.053 175.583C376.632 175.583 374.265 176.301 372.252 177.646C370.24 178.991 368.671 180.903 367.744 183.139C366.818 185.376 366.575 187.837 367.048 190.211C367.52 192.586 368.686 194.767 370.398 196.479C372.109 198.191 374.291 199.356 376.665 199.829C379.039 200.301 381.5 200.059 383.737 199.132C385.974 198.206 387.885 196.637 389.23 194.624C390.575 192.611 391.293 190.244 391.293 187.823C391.293 184.577 390.004 181.464 387.708 179.168C385.413 176.873 382.299 175.583 379.053 175.583Z" fill="#6730DE"/>
<path d="M621.962 211.481C620.312 206.025 618.129 200.746 615.444 195.719L619.506 182.427L593.278 156.2L579.973 160.275C574.963 157.56 569.686 155.371 564.225 153.743L557.707 141.475H520.574L514.042 153.743C508.583 155.376 503.306 157.565 498.294 160.275L485.003 156.2L458.747 182.456L462.809 195.747C460.112 200.769 457.929 206.049 456.291 211.509L444.008 218.027V255.16L456.277 261.692C457.912 267.148 460.096 272.424 462.794 277.44L458.733 290.717L484.989 316.972L498.28 312.911C503.298 315.613 508.579 317.792 514.042 319.415L520.574 331.698H557.707L564.225 319.429C569.681 317.789 574.958 315.6 579.973 312.897L593.278 316.958L619.534 290.702L615.473 277.411C618.15 272.389 620.324 267.114 621.962 261.663L634.231 255.131V217.998L621.962 211.481ZM539.134 303.88C525.819 303.88 512.802 299.932 501.731 292.534C490.66 285.137 482.031 274.622 476.936 262.321C471.841 250.019 470.507 236.483 473.105 223.424C475.703 210.365 482.114 198.369 491.53 188.954C500.945 179.539 512.94 173.127 526 170.529C539.059 167.932 552.595 169.265 564.897 174.36C577.198 179.456 587.713 188.085 595.11 199.156C602.507 210.227 606.456 223.243 606.456 236.558C606.456 245.399 604.714 254.153 601.331 262.321C597.948 270.489 592.989 277.91 586.738 284.162C580.486 290.413 573.065 295.372 564.897 298.755C556.729 302.139 547.975 303.88 539.134 303.88Z" fill="#6730DE"/>
<path d="M539.129 178.678C527.68 178.681 516.488 182.079 506.969 188.442C497.451 194.805 490.032 203.848 485.653 214.427C481.273 225.006 480.129 236.646 482.364 247.875C484.6 259.104 490.115 269.419 498.212 277.514C506.309 285.609 516.624 291.121 527.854 293.354C539.084 295.587 550.724 294.439 561.302 290.057C571.879 285.675 580.92 278.254 587.281 268.734C593.642 259.214 597.037 248.021 597.037 236.572C597.018 221.221 590.911 206.504 580.054 195.651C569.198 184.797 554.48 178.693 539.129 178.678ZM539.129 286.755C529.203 286.757 519.5 283.817 511.245 278.304C502.991 272.792 496.557 264.955 492.756 255.786C488.956 246.616 487.96 236.526 489.895 226.79C491.829 217.055 496.608 208.112 503.625 201.092C510.643 194.073 519.585 189.292 529.32 187.354C539.055 185.417 549.145 186.41 558.316 190.208C567.486 194.005 575.325 200.437 580.839 208.69C586.354 216.943 589.298 226.646 589.298 236.572C589.283 249.874 583.993 262.627 574.588 272.035C565.183 281.442 552.431 286.736 539.129 286.755Z" fill="#6730DE"/>
<path opacity="0.2" d="M539.129 178.678C527.68 178.681 516.488 182.079 506.969 188.442C497.451 194.805 490.032 203.848 485.653 214.427C481.273 225.006 480.129 236.646 482.364 247.875C484.6 259.104 490.115 269.419 498.212 277.514C506.309 285.609 516.624 291.121 527.854 293.354C539.084 295.587 550.724 294.439 561.302 290.057C571.879 285.675 580.92 278.254 587.281 268.734C593.642 259.214 597.037 248.021 597.037 236.572C597.018 221.221 590.911 206.504 580.054 195.651C569.198 184.797 554.48 178.693 539.129 178.678ZM539.129 286.755C529.203 286.757 519.5 283.817 511.245 278.304C502.991 272.792 496.557 264.955 492.756 255.786C488.956 246.616 487.96 236.526 489.895 226.79C491.829 217.055 496.608 208.112 503.625 201.092C510.643 194.073 519.585 189.292 529.32 187.354C539.055 185.417 549.145 186.41 558.316 190.208C567.486 194.005 575.325 200.437 580.839 208.69C586.354 216.943 589.298 226.646 589.298 236.572C589.283 249.874 583.993 262.627 574.588 272.035C565.183 281.442 552.431 286.736 539.129 286.755Z" fill="black"/>
<path d="M406.123 335.347C405.747 335.347 405.385 335.198 405.119 334.931C404.853 334.665 404.703 334.304 404.703 333.927V331.087C404.703 330.711 404.853 330.349 405.119 330.083C405.385 329.817 405.747 329.667 406.123 329.667C406.5 329.667 406.861 329.817 407.127 330.083C407.393 330.349 407.543 330.711 407.543 331.087V333.927C407.543 334.304 407.393 334.665 407.127 334.931C406.861 335.198 406.5 335.347 406.123 335.347Z" fill="#6730DE"/>
<path d="M384.013 298.654C382.709 297.816 381.689 296.603 381.087 295.175C380.939 294.829 380.658 294.556 380.308 294.416C379.958 294.276 379.567 294.281 379.22 294.43C378.874 294.579 378.601 294.859 378.461 295.209C378.321 295.559 378.326 295.951 378.475 296.297C379.309 298.236 380.697 299.886 382.465 301.04C382.693 301.188 382.96 301.266 383.232 301.267C383.539 301.269 383.839 301.172 384.086 300.989C384.333 300.806 384.515 300.548 384.603 300.254C384.691 299.959 384.681 299.644 384.575 299.356C384.468 299.067 384.271 298.821 384.013 298.654Z" fill="#6730DE"/>
<path d="M379.053 280.918C379.429 280.918 379.791 280.769 380.057 280.503C380.323 280.236 380.473 279.875 380.473 279.498V274.06C380.473 273.683 380.323 273.322 380.057 273.056C379.791 272.789 379.429 272.64 379.053 272.64C378.676 272.64 378.315 272.789 378.049 273.056C377.782 273.322 377.633 273.683 377.633 274.06V279.498C377.633 279.875 377.782 280.236 378.049 280.503C378.315 280.769 378.676 280.918 379.053 280.918Z" fill="#6730DE"/>
<path d="M393.834 299.904H388.381C388.004 299.904 387.643 300.054 387.377 300.32C387.111 300.586 386.961 300.947 386.961 301.324C386.961 301.701 387.111 302.062 387.377 302.328C387.643 302.594 388.004 302.744 388.381 302.744H393.834C394.21 302.744 394.572 302.594 394.838 302.328C395.104 302.062 395.254 301.701 395.254 301.324C395.254 300.947 395.104 300.586 394.838 300.32C394.572 300.054 394.21 299.904 393.834 299.904Z" fill="#6730DE"/>
<path d="M380.473 290.39V284.951C380.473 284.575 380.323 284.213 380.057 283.947C379.791 283.681 379.429 283.531 379.053 283.531C378.676 283.531 378.315 283.681 378.049 283.947C377.782 284.213 377.633 284.575 377.633 284.951V290.39C377.633 290.766 377.782 291.128 378.049 291.394C378.315 291.66 378.676 291.81 379.053 291.81C379.429 291.81 379.791 291.66 380.057 291.394C380.323 291.128 380.473 290.766 380.473 290.39Z" fill="#6730DE"/>
<path d="M407.456 309.134C407.407 308.761 407.211 308.424 406.913 308.195C406.615 307.966 406.238 307.864 405.866 307.913C405.681 307.944 405.504 308.011 405.345 308.111C405.186 308.21 405.048 308.34 404.94 308.494C404.832 308.647 404.755 308.82 404.714 309.003C404.673 309.186 404.669 309.375 404.701 309.56C404.747 309.889 404.77 310.221 404.772 310.554V314.814C404.772 315.191 404.922 315.552 405.188 315.818C405.454 316.084 405.816 316.234 406.192 316.234C406.569 316.234 406.93 316.084 407.196 315.818C407.463 315.552 407.612 315.191 407.612 314.814V310.554C407.591 310.078 407.539 309.603 407.456 309.134Z" fill="#6730DE"/>
<path d="M406.123 318.776C405.747 318.776 405.385 318.925 405.119 319.192C404.853 319.458 404.703 319.819 404.703 320.196V325.648C404.703 326.025 404.853 326.386 405.119 326.653C405.385 326.919 405.747 327.068 406.123 327.068C406.5 327.068 406.861 326.919 407.127 326.653C407.393 326.386 407.543 326.025 407.543 325.648V320.196C407.543 319.819 407.393 319.458 407.127 319.192C406.861 318.925 406.5 318.776 406.123 318.776Z" fill="#6730DE"/>
<path d="M404.882 303.497C403.491 301.909 401.656 300.776 399.613 300.245C399.432 300.198 399.244 300.188 399.059 300.214C398.874 300.24 398.696 300.302 398.535 300.397C398.375 300.492 398.234 300.618 398.122 300.767C398.009 300.916 397.928 301.086 397.881 301.267C397.834 301.448 397.824 301.636 397.85 301.821C397.876 302.006 397.938 302.184 398.033 302.345C398.128 302.506 398.254 302.647 398.403 302.759C398.553 302.871 398.722 302.953 398.903 303C400.396 303.385 401.737 304.211 402.752 305.371C402.885 305.522 403.048 305.644 403.232 305.727C403.416 305.81 403.615 305.853 403.817 305.854C404.089 305.853 404.356 305.774 404.586 305.626C404.815 305.478 404.996 305.267 405.109 305.018C405.221 304.77 405.259 304.494 405.219 304.224C405.179 303.954 405.062 303.702 404.882 303.497Z" fill="#6730DE"/>
<path d="M379.053 269.97C378.676 269.97 378.315 269.821 378.049 269.554C377.782 269.288 377.633 268.927 377.633 268.55V265.71C377.633 265.334 377.782 264.972 378.049 264.706C378.315 264.44 378.676 264.29 379.053 264.29C379.429 264.29 379.791 264.44 380.057 264.706C380.323 264.972 380.473 265.334 380.473 265.71V268.55C380.473 268.927 380.323 269.288 380.057 269.554C379.791 269.821 379.429 269.97 379.053 269.97Z" fill="#6730DE"/>
<path d="M473.388 406.844H144.602V412.112H473.388V406.844Z" fill="#6730DE"/>
<path d="M473.386 412.113H544.727V406.844H473.386V412.113Z" fill="#6730DE"/>
<path opacity="0.2" d="M473.386 412.113H544.727V406.844H473.386V412.113Z" fill="black"/>
<path d="M520.899 417.75H168.427L156.641 412.113H532.685L520.899 417.75Z" fill="#6730DE"/>
<path opacity="0.6" d="M520.899 417.75H168.427L156.641 412.113H532.685L520.899 417.75Z" fill="white"/>
<path d="M179.078 417.75V585.793H183.594L189.274 417.75H179.078Z" fill="#6730DE"/>
<path d="M232.383 417.75V585.793H236.898L242.578 417.75H232.383Z" fill="#6730DE"/>
<path d="M520.899 417.75V585.793H516.397L510.703 417.75H520.899Z" fill="#6730DE"/>
<path d="M467.61 417.75V585.793H463.094L457.414 417.75H467.61Z" fill="#6730DE"/>
<path d="M360.313 343.058L345.474 403.507L345.062 406.844H447.416L447.842 403.507L462.667 343.058H360.313Z" fill="#6730DE"/>
<path opacity="0.3" d="M360.313 343.058L345.474 403.507L345.062 406.844H447.416L447.842 403.507L462.667 343.058H360.313Z" fill="black"/>
<path d="M459.529 343.058H357.161L342.336 403.507H444.69L459.529 343.058Z" fill="#6730DE"/>
<path d="M442.519 400.738L456.009 345.827H359.335L345.859 400.738H442.519Z" fill="white"/>
<path d="M418.022 403.507L417.596 406.844H304.891L305.302 403.507H418.022Z" fill="#6730DE"/>
<path opacity="0.6" d="M418.022 403.507L417.596 406.844H304.891L305.302 403.507H418.022Z" fill="white"/>
<path d="M205.111 395.853C205.039 393.691 204.192 391.625 202.725 390.035C201.257 388.445 199.266 387.436 197.116 387.191V385.558C197.114 385.464 197.094 385.371 197.055 385.284C197.017 385.198 196.962 385.12 196.893 385.055C196.824 384.991 196.743 384.94 196.655 384.907C196.566 384.874 196.472 384.859 196.378 384.863H181.042C180.947 384.859 180.852 384.874 180.762 384.907C180.673 384.94 180.591 384.99 180.521 385.054C180.451 385.119 180.395 385.197 180.355 385.283C180.315 385.37 180.293 385.463 180.289 385.558V406.858H197.116V404.53C199.27 404.288 201.264 403.277 202.733 401.684C204.201 400.09 205.046 398.02 205.111 395.853ZM197.116 401.775V389.946C198.535 390.155 199.832 390.868 200.769 391.954C201.707 393.039 202.223 394.426 202.223 395.861C202.223 397.295 201.707 398.682 200.769 399.767C199.832 400.853 198.535 401.566 197.116 401.775Z" fill="#6730DE"/>
<path d="M492.117 406.844H506.374L502.157 375.618H492.117V406.844Z" fill="#263238"/>
<path d="M471.219 406.844H498.227L503.24 370.293H476.246L471.219 406.844Z" fill="#6730DE"/>
<path opacity="0.3" d="M471.219 406.844H498.227L503.24 370.293H476.246L471.219 406.844Z" fill="black"/>
<path d="M467.609 406.844H495.711L500.738 370.293H472.636L467.609 406.844Z" fill="#6730DE"/>
<path opacity="0.4" d="M493.227 403.962L497.459 373.176H475.122L470.891 403.962H493.227Z" fill="white"/>
<path d="M280.503 352.884L279.339 354.134L278.089 355.554C277.252 356.519 276.414 357.499 275.619 358.507C274.028 360.524 272.495 362.583 271.06 364.699C268.207 368.791 265.825 373.192 263.96 377.819C263.092 380.019 262.417 382.29 261.944 384.607C261.717 385.913 261.575 386.481 261.504 387.035C261.425 387.477 261.425 387.929 261.504 388.37C261.742 389.064 262.116 389.704 262.603 390.253C263.091 390.801 263.682 391.247 264.344 391.565C265.302 392.156 266.31 392.664 267.354 393.084C267.903 393.312 268.471 393.525 269.058 393.723C269.598 393.922 270.279 394.121 270.705 394.291V402.116C269.711 402.258 268.987 402.371 268.149 402.428C267.312 402.485 266.502 402.499 265.664 402.428C263.942 402.393 262.228 402.174 260.552 401.775C258.664 401.331 256.854 400.604 255.185 399.616C253.222 398.468 251.535 396.902 250.243 395.03C248.914 393.037 248.032 390.779 247.659 388.413C247.564 387.858 247.502 387.299 247.474 386.737C247.446 386.198 247.446 385.657 247.474 385.118V384.323C247.458 384.11 247.458 383.897 247.474 383.684L247.588 382.434C247.951 379.189 248.636 375.988 249.633 372.878C251.556 366.904 254.263 361.212 257.684 355.951C259.328 353.368 261.115 350.879 263.037 348.496C263.989 347.304 264.969 346.139 265.991 344.989C266.488 344.407 267.013 343.839 267.553 343.271C268.093 342.703 268.59 342.206 269.328 341.496L280.503 352.884Z" fill="#B55B52"/>
<path d="M267.883 394.121L274.5 389.265L278.263 402.868C278.263 402.868 272.398 405.041 267.925 402.116L267.883 394.121Z" fill="#B55B52"/>
<path d="M283.687 385.999L286.272 397.387L278.263 402.868L274.5 389.265L283.687 385.999Z" fill="#B55B52"/>
<path d="M325.533 300.685C325.235 301.523 325.448 302.361 326.002 302.545C326.556 302.73 327.237 302.219 327.521 301.381C327.805 300.543 327.607 299.691 327.067 299.506C326.527 299.322 325.832 299.833 325.533 300.685Z" fill="#263238"/>
<path d="M325.373 302.332C325.484 305.257 325.995 308.152 326.893 310.937C326.178 311.142 325.427 311.19 324.691 311.077C323.956 310.965 323.254 310.694 322.633 310.284L325.373 302.332Z" fill="#A02724"/>
<path d="M324.17 294.977C324.276 295.012 324.391 295.012 324.497 294.977C325.12 294.769 325.783 294.712 326.433 294.811C327.082 294.909 327.699 295.161 328.232 295.545C328.338 295.622 328.47 295.656 328.602 295.641C328.733 295.626 328.853 295.561 328.939 295.461C329.025 295.361 329.07 295.232 329.065 295.1C329.06 294.968 329.006 294.843 328.913 294.749C328.247 294.253 327.471 293.922 326.651 293.787C325.831 293.651 324.99 293.713 324.199 293.968C324.095 294.004 324.005 294.071 323.942 294.16C323.878 294.249 323.844 294.356 323.844 294.465C323.844 294.575 323.878 294.682 323.942 294.771C324.005 294.86 324.095 294.927 324.199 294.962L324.17 294.977Z" fill="#263238"/>
<path d="M294.391 303.781C295.982 311.86 297.558 326.671 291.906 332.067C291.906 332.067 294.121 340.26 309.145 340.26C325.66 340.26 317.04 332.067 317.04 332.067C308.023 329.909 308.25 323.22 309.827 316.944L294.391 303.781Z" fill="#B55B52"/>
<path d="M289.749 334.879C288.556 332.28 287.264 329.312 289.948 328.389C292.916 327.367 309.161 326.316 314.755 328.233C315.495 328.434 316.187 328.781 316.791 329.253C317.395 329.725 317.899 330.313 318.273 330.982C318.648 331.651 318.885 332.388 318.971 333.15C319.056 333.911 318.99 334.683 318.774 335.418L289.749 334.879Z" fill="#263238"/>
<path d="M346.479 348.738C349.958 355 353.693 361.447 357.47 367.638C361.247 373.829 365.209 379.992 369.441 385.615C370.491 387.035 371.585 388.384 372.664 389.733C373.204 390.429 373.772 390.997 374.325 391.636L375.149 392.573L375.362 392.815L375.461 392.928L375.561 393.056C376.222 393.696 377.018 394.181 377.89 394.476C379.232 394.943 380.615 395.281 382.022 395.484C388.924 396.181 395.883 396.1 402.768 395.243L404.926 402.769C403.009 403.621 401.22 404.189 399.317 404.899C397.415 405.609 395.54 406.077 393.637 406.56C389.604 407.572 385.469 408.125 381.312 408.207C378.978 408.245 376.648 408.012 374.368 407.512C371.569 406.956 368.93 405.782 366.643 404.075L365.692 403.294L365.465 403.095L365.323 402.953L365.053 402.684L363.945 401.59C363.221 400.866 362.426 400.17 361.773 399.403C360.353 397.912 359.018 396.421 357.782 394.888C352.821 388.892 348.245 382.589 344.079 376.016C342.006 372.778 340.009 369.508 338.087 366.204C336.156 362.867 334.296 359.601 332.492 356.079L346.479 348.738Z" fill="#B55B52"/>
<path d="M272.128 334.566C261.762 336.938 249.891 365.181 249.891 365.181L270.694 379.381C275.868 371.962 280.459 364.152 284.425 356.022C290.574 343.157 282.721 332.138 272.128 334.566Z" fill="#6730DE"/>
<path opacity="0.2" d="M279.537 352.572L269.711 378.757L270.677 379.438C270.677 379.438 274.937 373.46 279.537 365.394V352.572Z" fill="black"/>
<path d="M334.037 335.12C334.037 335.12 345.795 348.411 334.69 430.629H275.576C275.178 421.555 280.872 377.308 272.125 334.552C278.658 333.294 285.265 332.459 291.906 332.053C300.276 331.562 308.669 331.562 317.04 332.053C322.777 332.63 328.46 333.656 334.037 335.12Z" fill="#6730DE"/>
<path opacity="0.2" d="M327.461 358.905C329.003 368.237 333.036 376.979 339.133 384.209C339.375 378.913 339.474 374.156 339.46 369.91L327.461 358.905Z" fill="black"/>
<path d="M322.336 344.094C320.916 354.56 341.506 381.284 341.506 381.284L362.224 367.084C362.224 367.084 356.473 352.359 346.802 342.703C335.783 331.627 323.955 332.706 322.336 344.094Z" fill="#6730DE"/>
<path d="M400.438 395.314L408.872 391.849L417.548 398.41C417.548 398.41 409.27 405.737 401.744 402.883L400.438 395.314Z" fill="#B55B52"/>
<path d="M414.437 391.508L420.799 396.052L417.504 398.41L408.828 391.849L414.437 391.508Z" fill="#B55B52"/>
<path d="M298.07 289.126C295.116 299.691 292.844 305.726 296.224 312.84C301.293 323.561 315.706 323.263 321.784 313.806C327.237 305.286 331.156 289.439 322.466 281.813C320.558 280.118 318.248 278.94 315.756 278.389C313.264 277.838 310.673 277.934 308.228 278.666C305.784 279.399 303.567 280.745 301.789 282.576C300.011 284.406 298.731 286.661 298.07 289.126Z" fill="#B55B52"/>
<path d="M320.565 289.24C316.305 301.367 311.293 314.686 299.052 312.159C291.157 310.526 290.532 297.817 287.692 292.037C285.179 286.968 285.335 276.772 290.532 276.644C288.203 273.265 299.975 260.897 308.012 267.429C310.071 264.589 324.91 256.225 335.901 269.502C346.253 282.055 341.184 292.52 320.565 289.24Z" fill="#263238"/>
<path d="M310.975 296.993C310.69 299.702 311.298 302.429 312.707 304.76C314.596 307.799 317.365 306.635 318.387 303.525C319.296 300.685 319.395 295.786 316.768 293.812C314.141 291.838 311.372 293.727 310.975 296.993Z" fill="#B55B52"/>
<path d="M401.687 577.77C403.107 577.77 404.527 577.571 404.939 576.932C405.057 576.763 405.119 576.562 405.119 576.357C405.119 576.151 405.057 575.951 404.939 575.782C404.75 575.483 404.457 575.265 404.116 575.171C402.27 574.674 398.436 576.875 398.251 576.975C398.203 576.999 398.164 577.038 398.14 577.087C398.117 577.136 398.111 577.192 398.123 577.244C398.133 577.295 398.156 577.342 398.191 577.38C398.227 577.418 398.272 577.445 398.322 577.457C399.433 577.66 400.559 577.764 401.687 577.77ZM403.448 575.626C403.613 575.602 403.78 575.602 403.945 575.626C404.052 575.646 404.154 575.689 404.242 575.753C404.331 575.817 404.404 575.899 404.456 575.995C404.641 576.321 404.584 576.478 404.456 576.563C403.945 577.287 401.148 577.301 399.089 577.003C400.439 576.265 401.92 575.798 403.448 575.626Z" fill="#6730DE"/>
<path d="M398.346 577.457H398.46C399.795 576.861 402.436 574.475 402.223 573.197C402.223 572.899 401.967 572.544 401.257 572.459C401.002 572.437 400.745 572.466 400.502 572.544C400.258 572.622 400.032 572.747 399.837 572.913C398.417 574.063 398.133 577.045 398.119 577.173C398.114 577.219 398.12 577.265 398.137 577.307C398.155 577.349 398.183 577.386 398.218 577.415C398.258 577.438 398.301 577.452 398.346 577.457ZM401.044 572.984H401.2C401.669 572.984 401.697 573.226 401.712 573.282C401.839 574.035 400.036 575.909 398.673 576.719C398.786 575.469 399.282 574.283 400.093 573.325C400.357 573.099 400.696 572.977 401.044 572.984Z" fill="#6730DE"/>
<path d="M385.5 577.202H396.548L399.061 551.599H388.013L385.5 577.202Z" fill="#B55B52"/>
<path d="M397.167 575.924H385.111C384.889 575.925 384.674 576.001 384.501 576.141C384.328 576.28 384.208 576.474 384.16 576.69L381.973 586.46C381.916 586.698 381.915 586.946 381.969 587.184C382.023 587.423 382.131 587.646 382.285 587.836C382.438 588.027 382.633 588.18 382.855 588.283C383.076 588.387 383.319 588.438 383.563 588.434C387.908 588.363 394.199 588.107 399.666 588.107C406.07 588.107 411.594 588.448 419.092 588.448C423.636 588.448 424.899 583.861 422.997 583.45C414.349 581.561 407.291 581.362 399.822 576.747C399.03 576.233 398.111 575.948 397.167 575.924Z" fill="#263238"/>
<path opacity="0.2" d="M399.043 551.613L397.765 564.805H386.703L387.995 551.613H399.043Z" fill="black"/>
<path d="M357.396 577.755C357.864 577.817 358.34 577.784 358.796 577.66C359.252 577.536 359.679 577.322 360.051 577.031C360.182 576.852 360.252 576.635 360.252 576.413C360.252 576.192 360.182 575.975 360.051 575.796C359.967 575.64 359.85 575.504 359.708 575.399C359.565 575.293 359.401 575.22 359.228 575.185C357.609 574.802 354.556 576.889 354.428 576.974C354.388 577.006 354.356 577.047 354.336 577.094C354.316 577.142 354.309 577.193 354.314 577.244C354.325 577.293 354.349 577.338 354.384 577.373C354.419 577.409 354.464 577.433 354.513 577.443C355.46 577.649 356.427 577.754 357.396 577.755ZM358.816 575.654C358.919 575.639 359.025 575.639 359.128 575.654C359.23 575.669 359.327 575.707 359.41 575.766C359.494 575.826 359.563 575.904 359.611 575.995C359.852 576.435 359.71 576.605 359.611 576.676C359.142 577.287 356.885 577.301 355.223 577.031C356.292 576.308 357.51 575.837 358.787 575.654H358.816Z" fill="#6730DE"/>
<path d="M354.582 577.457H354.696C355.846 576.832 358.061 574.418 357.82 573.197C357.783 573.002 357.68 572.825 357.527 572.698C357.374 572.571 357.181 572.501 356.982 572.501C356.784 572.477 356.583 572.495 356.392 572.554C356.201 572.612 356.025 572.711 355.875 572.842C354.597 573.893 354.327 577.102 354.313 577.216C354.312 577.264 354.323 577.311 354.346 577.353C354.368 577.395 354.4 577.431 354.44 577.457C354.487 577.472 354.536 577.472 354.582 577.457ZM356.812 572.984H356.925C357.266 572.984 357.295 573.183 357.309 573.254C357.451 573.978 356.031 575.81 354.895 576.676C354.971 575.416 355.426 574.208 356.201 573.211C356.371 573.065 356.588 572.985 356.812 572.984Z" fill="#6730DE"/>
<path d="M341.922 577.202H352.969L358.522 551.599H347.474L341.922 577.202Z" fill="#B55B52"/>
<path d="M353.75 575.924H341.34C341.119 575.925 340.906 576.002 340.736 576.142C340.565 576.281 340.448 576.475 340.402 576.69L338.216 586.46C338.164 586.7 338.168 586.948 338.226 587.186C338.284 587.425 338.395 587.647 338.55 587.836C338.706 588.026 338.902 588.178 339.124 588.282C339.346 588.385 339.589 588.437 339.834 588.434C344.165 588.363 346.281 588.107 351.734 588.107C355.099 588.107 359.402 588.448 364.045 588.448C368.689 588.448 369.285 583.861 367.382 583.45C358.862 581.589 358.28 579.019 355.554 576.563C355.051 576.136 354.409 575.909 353.75 575.924Z" fill="#263238"/>
<g opacity="0.2">
<path d="M347.47 551.613H358.518L355.649 564.805H344.602L347.47 551.613Z" fill="black"/>
</g>
<path d="M334.693 430.643C334.693 430.643 417.479 439.405 416.57 481.636C415.984 508.158 410.884 534.386 401.49 559.196H385.075C385.075 559.196 385.913 532.401 385.359 489.162C385.188 476.197 359.018 471.923 333.444 470.418C322.614 469.737 312.19 466.043 303.348 459.752C294.506 453.462 287.598 444.826 283.403 434.818L281.656 430.643H334.693Z" fill="#263238"/>
<path d="M405.504 554.794C405.589 554.794 404.439 562.561 404.439 562.561H381.719L381.094 555.632L405.504 554.794Z" fill="#6730DE"/>
<path d="M316.965 430.643C316.965 430.643 376.974 450.523 378.494 475.175C381.334 520.529 359.026 559.196 359.026 559.196H342.454C342.454 559.196 348.745 540.026 350.974 498.931C353.814 447.314 257.496 498.846 275.544 430.643H316.965Z" fill="#263238"/>
<path d="M364.042 554.794C364.127 554.794 361.954 562.561 361.954 562.561H339.234L339.646 555.632L364.042 554.794Z" fill="#6730DE"/>
<path d="M360.253 474.124H267.953C267.953 471.329 269.063 468.649 271.039 466.673C273.015 464.697 275.695 463.587 278.49 463.587H349.717C352.511 463.587 355.191 464.697 357.167 466.673C359.143 468.649 360.253 471.329 360.253 474.124Z" fill="#6730DE"/>
<path d="M272.229 474.11L258.312 590.777H261.294L278.945 474.11H272.229Z" fill="#6730DE"/>
<path opacity="0.4" d="M272.229 474.11L258.312 590.777H261.294L278.945 474.11H272.229Z" fill="black"/>
<path d="M290.84 474.11L290.57 590.777H293.538L297.557 474.11H290.84Z" fill="#6730DE"/>
<path opacity="0.4" d="M290.84 474.11L290.57 590.777H293.538L297.557 474.11H290.84Z" fill="black"/>
<path d="M355.976 474.11L369.892 590.777H366.91L349.273 474.11H355.976Z" fill="#6730DE"/>
<path opacity="0.4" d="M355.976 474.11L369.892 590.777H366.91L349.273 474.11H355.976Z" fill="black"/>
<path d="M337.357 474.11L337.627 590.777H334.659L330.641 474.11H337.357Z" fill="#6730DE"/>
<path opacity="0.4" d="M337.357 474.11L337.627 590.777H334.659L330.641 474.11H337.357Z" fill="black"/>
</svg>
