<svg width="171" height="28" viewBox="0 0 171 28" fill="none" xmlns="http://www.w3.org/2000/svg">
<path d="M26.1629 13.5091C26.0473 14.4925 26.5332 16.9333 29.402 18.8305C27.1115 19.4272 22.0504 21.9223 20.0996 27.1328C20.1721 26.722 20.1334 21.6899 20.0979 18.5727C20.4626 18.6265 20.8215 18.7319 21.1634 18.8891C20.6852 17.8491 20.6852 16.6519 21.1634 15.6119C20.1234 16.0901 18.9264 16.0901 17.8863 15.6119C18.3646 16.6519 18.3646 17.8491 17.8863 18.8891C18.2404 18.7263 18.6126 18.6189 18.9906 18.5669V27.1597C18.1037 24.8075 14.9763 19.86 9.56239 18.8883C10.6614 18.252 12.8592 16.2855 12.8593 13.5091C12.8593 13.4629 17.3323 12.2944 19.5689 11.716L26.1629 13.5091ZM1.03615 12.2384C0.40005 14.4179 0.86265 18.9735 7.80192 19.7604C9.86443 20.0112 14.5446 21.4732 16.7652 25.3152C15.8014 24.1387 12.4859 21.4384 7.74409 21.207C3.40699 20.9177 -2.38722 20.1076 1.03615 12.2384ZM37.8591 12.2384C41.2824 20.1076 35.488 20.9177 31.1509 21.207C26.4091 21.4384 23.0939 24.1386 22.13 25.3152C24.3506 21.4732 29.0305 20.0112 31.0931 19.7604C38.0323 18.9735 38.4952 14.4179 37.8591 12.2384ZM37.5537 5.35547L28.9468 7.88905V13.2445L19.5311 10.7107L10.0001 13.2445V8.81048L18.6648 5.58572L10.0001 7.88905L1.5086 5.41287L19.5311 0L37.5537 5.35547Z" fill="white"/>
<path d="M150.946 5.66891H152.589C152.758 5.66891 152.843 5.71724 152.94 5.81389L155.223 7.9402L157.47 5.81389C157.579 5.71724 157.663 5.66891 157.82 5.66891H159.343C159.56 5.66891 159.609 5.86221 159.476 5.98303L156.286 8.93086L159.56 11.9874C159.693 12.1203 159.645 12.3015 159.439 12.3015H157.796C157.639 12.3015 157.543 12.2653 157.446 12.1687L154.969 9.86112L152.529 12.1687C152.432 12.2653 152.348 12.3015 152.191 12.3015H150.656C150.439 12.3015 150.39 12.1203 150.523 11.9874L153.918 8.88254L150.813 5.98303C150.68 5.86221 150.741 5.66891 150.946 5.66891Z" fill="white"/>
<path d="M140.266 3.84464H149.713C149.895 3.84464 149.991 3.9292 149.991 4.11042V5.29439C149.991 5.47561 149.895 5.56018 149.713 5.56018H145.908V12.0358C145.908 12.217 145.835 12.3015 145.654 12.3015H144.337C144.168 12.3015 144.071 12.217 144.071 12.0358V5.56018H140.266C140.097 5.56018 140 5.47561 140 5.29439V4.11042C140 3.9292 140.097 3.84464 140.266 3.84464Z" fill="white"/>
<path d="M132.154 3.84464H138.557C138.726 3.84464 138.823 3.9292 138.823 4.11042V5.28231C138.823 5.45145 138.726 5.5481 138.557 5.5481H132.504C132.07 5.5481 131.864 5.75348 131.864 6.20049V6.61125C131.864 7.04618 132.057 7.2274 132.504 7.2274H137.023C138.376 7.2274 139.137 8.0006 139.137 9.35371V10.3323C139.137 11.5767 138.388 12.3015 136.999 12.3015H130.306C130.124 12.3015 130.04 12.217 130.04 12.0358V10.8639C130.04 10.6947 130.124 10.5981 130.306 10.5981H136.648C137.071 10.5981 137.289 10.3927 137.289 9.94569V9.45036C137.289 9.01543 137.107 8.83421 136.66 8.83421H132.13C130.777 8.83421 130.028 8.06101 130.028 6.7079V5.81389C130.028 4.56951 130.765 3.84464 132.154 3.84464Z" fill="white"/>
<path d="M123.195 3.84464H128.51C128.679 3.84464 128.776 3.9292 128.776 4.11042V5.28231C128.776 5.45145 128.679 5.5481 128.51 5.5481H123.207C121.962 5.5481 121.636 5.89846 121.636 7.16699V7.2274H128.438C128.607 7.2274 128.704 7.31197 128.704 7.49319V8.56843C128.704 8.74964 128.607 8.83421 128.438 8.83421H121.636V8.97919C121.636 10.2477 121.962 10.5981 123.207 10.5981H128.51C128.679 10.5981 128.776 10.6947 128.776 10.8639V12.0358C128.776 12.217 128.679 12.3015 128.51 12.3015H123.195C120.742 12.3015 119.812 11.4196 119.812 9.11208V7.0341C119.812 4.72657 120.742 3.84464 123.195 3.84464Z" fill="white"/>
<path d="M108.352 3.84464H109.657C109.838 3.84464 109.922 3.9292 109.922 4.11042V8.93086C109.922 10.2115 110.285 10.586 111.529 10.586H114.876C116.12 10.586 116.471 10.2115 116.471 8.93086V4.11042C116.471 3.9292 116.567 3.84464 116.736 3.84464H118.053C118.234 3.84464 118.319 3.9292 118.319 4.11042V9.11208C118.319 11.4317 117.389 12.3015 114.936 12.3015H111.469C109.016 12.3015 108.086 11.4317 108.086 9.11208V4.11042C108.086 3.9292 108.171 3.84464 108.352 3.84464Z" fill="white"/>
<path d="M99.4802 3.84464H103.201C105.654 3.84464 106.584 4.71449 106.584 7.0341V8.9067C106.584 10.876 105.907 11.8062 104.204 12.0358L105.593 13.9567C105.666 14.0654 105.642 14.2708 105.436 14.2708H103.878C103.685 14.2708 103.612 14.2225 103.54 14.1137L102.126 12.0962H99.4802C97.0277 12.0962 96.0975 11.2142 96.0975 8.9067V7.0341C96.0975 4.72657 97.0277 3.84464 99.4802 3.84464ZM97.9338 7.16699V8.77381C97.9338 10.0423 98.2842 10.3927 99.5406 10.3927H103.129C104.385 10.3927 104.736 10.0423 104.736 8.77381V7.16699C104.736 5.89846 104.385 5.5481 103.129 5.5481H99.5406C98.2842 5.5481 97.9338 5.89846 97.9338 7.16699Z" fill="white"/>
<path d="M82.7145 3.84464H84.0193C84.2005 3.84464 84.2851 3.9292 84.2851 4.11042V8.93086C84.2851 10.2115 84.6475 10.586 85.8919 10.586H90.7848C90.954 10.586 91.0506 10.6706 91.0506 10.8518V12.0358C91.0506 12.217 90.954 12.3015 90.7848 12.3015H85.8315C83.379 12.3015 82.4487 11.4317 82.4487 9.11208V4.11042C82.4487 3.9292 82.5333 3.84464 82.7145 3.84464Z" fill="white"/>
<path d="M73.2052 3.84464H74.51C74.6912 3.84464 74.7758 3.9292 74.7758 4.11042V8.93086C74.7758 10.2115 75.1382 10.586 76.3826 10.586H81.2755C81.4446 10.586 81.5413 10.6706 81.5413 10.8518V12.0358C81.5413 12.217 81.4446 12.3015 81.2755 12.3015H76.3222C73.8697 12.3015 72.9394 11.4317 72.9394 9.11208V4.11042C72.9394 3.9292 73.024 3.84464 73.2052 3.84464Z" fill="white"/>
<path d="M69.7725 3.84464H71.0773C71.2585 3.84464 71.3431 3.9292 71.3431 4.11042V12.0358C71.3431 12.217 71.2585 12.3015 71.0773 12.3015H69.7725C69.5913 12.3015 69.5067 12.217 69.5067 12.0358V4.11042C69.5067 3.9292 69.5913 3.84464 69.7725 3.84464Z" fill="white"/>
<path d="M59.4609 3.84464H60.7657C60.9469 3.84464 61.0315 3.9292 61.0315 4.11042V7.26364H62.7108C63.5323 7.26364 63.7377 7.19116 64.0518 6.78039L66.154 4.00169C66.2385 3.88088 66.2989 3.84464 66.5043 3.84464H68.0145C68.1957 3.84464 68.2561 4.01377 68.1595 4.13459L65.8157 7.16699C65.5499 7.51735 65.3204 7.78314 65.0908 7.97644C65.417 8.18182 65.707 8.45969 66.009 8.8463L68.4857 11.9874C68.5823 12.0841 68.534 12.3015 68.3286 12.3015H66.7943C66.601 12.3015 66.5285 12.2653 66.4439 12.1445L64.2089 9.28122C63.8948 8.87046 63.6531 8.78589 62.8679 8.78589H61.0315V12.0358C61.0315 12.217 60.9469 12.3015 60.7657 12.3015H59.4609C59.2797 12.3015 59.1951 12.217 59.1951 12.0358V4.11042C59.1951 3.9292 59.2797 3.84464 59.4609 3.84464Z" fill="white"/>
<path d="M50.8177 3.84464H57.2208C57.3899 3.84464 57.4866 3.9292 57.4866 4.11042V5.28231C57.4866 5.45145 57.3899 5.5481 57.2208 5.5481H51.1681C50.7331 5.5481 50.5277 5.75348 50.5277 6.20049V6.61125C50.5277 7.04618 50.7211 7.2274 51.1681 7.2274H55.6865C57.0396 7.2274 57.8007 8.0006 57.8007 9.35371V10.3323C57.8007 11.5767 57.0517 12.3015 55.6623 12.3015H48.9693C48.788 12.3015 48.7035 12.217 48.7035 12.0358V10.8639C48.7035 10.6947 48.788 10.5981 48.9693 10.5981H55.3119C55.7348 10.5981 55.9523 10.3927 55.9523 9.94569V9.45036C55.9523 9.01543 55.771 8.83421 55.324 8.83421H50.7935C49.4404 8.83421 48.6914 8.06101 48.6914 6.7079V5.81389C48.6914 4.56951 49.4284 3.84464 50.8177 3.84464Z" fill="white"/>
<path d="M158.245 18.7323C158.649 18.7323 159.002 18.8106 159.305 18.9672C159.61 19.1201 159.845 19.3423 160.009 19.6337C160.177 19.9214 160.261 20.2582 160.261 20.6443C160.261 21.0303 160.177 21.3654 160.009 21.6494C159.845 21.9335 159.61 22.152 159.305 22.305C159.002 22.4543 158.649 22.5289 158.245 22.5289H157.005V18.7323H158.245ZM158.245 22.0209C158.689 22.0209 159.03 21.9007 159.266 21.6604C159.503 21.42 159.621 21.0813 159.621 20.6443C159.621 20.2036 159.503 19.8594 159.266 19.6118C159.03 19.3642 158.689 19.2403 158.245 19.2403H157.627V22.0209H158.245Z" fill="white"/>
<path d="M153.506 19.2349V20.3493H154.817V20.8573H153.506V22.0209H154.981V22.5289H152.883V18.7268H154.981V19.2349H153.506Z" fill="white"/>
<path d="M149.385 19.2349V20.3493H150.696V20.8573H149.385V22.0209H150.86V22.5289H148.762V18.7268H150.86V19.2349H149.385Z" fill="white"/>
<path d="M143.073 20.6224C143.073 20.2509 143.159 19.9177 143.33 19.6227C143.505 19.3277 143.74 19.0983 144.035 18.9344C144.333 18.7669 144.659 18.6831 145.012 18.6831C145.417 18.6831 145.775 18.7833 146.089 18.9836C146.405 19.1802 146.635 19.4607 146.777 19.8249H146.028C145.93 19.6245 145.794 19.4752 145.619 19.3769C145.444 19.2786 145.242 19.2294 145.012 19.2294C144.761 19.2294 144.537 19.2859 144.34 19.3988C144.144 19.5117 143.989 19.6737 143.876 19.8849C143.767 20.0962 143.712 20.342 143.712 20.6224C143.712 20.9028 143.767 21.1487 143.876 21.3599C143.989 21.5711 144.144 21.735 144.34 21.8516C144.537 21.9644 144.761 22.0209 145.012 22.0209C145.242 22.0209 145.444 21.9717 145.619 21.8734C145.794 21.7751 145.93 21.6258 146.028 21.4255H146.777C146.635 21.7896 146.405 22.0701 146.089 22.2667C145.775 22.4634 145.417 22.5617 145.012 22.5617C144.656 22.5617 144.33 22.4798 144.035 22.3159C143.74 22.1484 143.505 21.9171 143.33 21.6221C143.159 21.3271 143.073 20.9939 143.073 20.6224Z" fill="white"/>
<path d="M137.592 20.6224C137.592 20.2509 137.677 19.9177 137.848 19.6227C138.023 19.3277 138.258 19.0983 138.553 18.9344C138.852 18.7669 139.178 18.6831 139.531 18.6831C139.935 18.6831 140.294 18.7833 140.607 18.9836C140.924 19.1802 141.153 19.4607 141.295 19.8249H140.547C140.449 19.6245 140.312 19.4752 140.137 19.3769C139.962 19.2786 139.76 19.2294 139.531 19.2294C139.28 19.2294 139.056 19.2859 138.859 19.3988C138.662 19.5117 138.507 19.6737 138.395 19.8849C138.285 20.0962 138.231 20.342 138.231 20.6224C138.231 20.9028 138.285 21.1487 138.395 21.3599C138.507 21.5711 138.662 21.735 138.859 21.8516C139.056 21.9644 139.28 22.0209 139.531 22.0209C139.76 22.0209 139.962 21.9717 140.137 21.8734C140.312 21.7751 140.449 21.6258 140.547 21.4255H141.295C141.153 21.7896 140.924 22.0701 140.607 22.2667C140.294 22.4634 139.935 22.5617 139.531 22.5617C139.174 22.5617 138.848 22.4798 138.553 22.3159C138.258 22.1484 138.023 21.9171 137.848 21.6221C137.677 21.3271 137.592 20.9939 137.592 20.6224Z" fill="white"/>
<path d="M133.388 18.7323V21.1523C133.388 21.44 133.463 21.6567 133.612 21.8024C133.765 21.9481 133.976 22.0209 134.246 22.0209C134.519 22.0209 134.73 21.9481 134.88 21.8024C135.033 21.6567 135.109 21.44 135.109 21.1523V18.7323H135.732V21.1414C135.732 21.4509 135.664 21.7132 135.53 21.928C135.395 22.1429 135.215 22.3031 134.989 22.4088C134.763 22.5144 134.514 22.5672 134.24 22.5672C133.967 22.5672 133.718 22.5144 133.492 22.4088C133.27 22.3031 133.093 22.1429 132.962 21.928C132.831 21.7132 132.766 21.4509 132.766 21.1414V18.7323H133.388Z" fill="white"/>
<path d="M129.469 22.5672C129.214 22.5672 128.984 22.5235 128.78 22.4361C128.576 22.345 128.416 22.2176 128.3 22.0537C128.183 21.8898 128.125 21.6986 128.125 21.4801H128.791C128.806 21.644 128.87 21.7787 128.982 21.8843C129.099 21.9899 129.261 22.0427 129.469 22.0427C129.684 22.0427 129.851 21.9918 129.971 21.8898C130.091 21.7842 130.151 21.6494 130.151 21.4855C130.151 21.3581 130.113 21.2543 130.037 21.1742C129.964 21.094 129.871 21.0321 129.758 20.9884C129.649 20.9447 129.496 20.8974 129.299 20.8464C129.052 20.7808 128.85 20.7153 128.693 20.6497C128.54 20.5805 128.409 20.4749 128.3 20.3329C128.19 20.1909 128.136 20.0015 128.136 19.7648C128.136 19.5462 128.19 19.3551 128.3 19.1912C128.409 19.0273 128.562 18.9016 128.758 18.8142C128.955 18.7268 129.183 18.6831 129.441 18.6831C129.809 18.6831 130.11 18.776 130.343 18.9617C130.579 19.1438 130.711 19.3951 130.736 19.7156H130.048C130.037 19.5772 129.971 19.4588 129.851 19.3605C129.731 19.2622 129.572 19.213 129.376 19.213C129.197 19.213 129.052 19.2585 128.939 19.3496C128.826 19.4406 128.769 19.5717 128.769 19.7429C128.769 19.8594 128.804 19.956 128.873 20.0324C128.946 20.1053 129.037 20.1635 129.146 20.2072C129.256 20.2509 129.405 20.2983 129.594 20.3493C129.846 20.4185 130.05 20.4877 130.206 20.5569C130.366 20.6261 130.501 20.7335 130.61 20.8792C130.723 21.0212 130.78 21.2124 130.78 21.4528C130.78 21.6458 130.727 21.8279 130.621 21.999C130.519 22.1702 130.368 22.3086 130.168 22.4142C129.971 22.5162 129.738 22.5672 129.469 22.5672Z" fill="white"/>
<path d="M123.301 23.1462H122.678V18.1532H123.301V23.1462Z" fill="white"/>
<path d="M116.778 22.0264H118.062V22.5289H116.155V18.7323H116.778V22.0264Z" fill="white"/>
<path d="M113.094 22.0264H114.378V22.5289H112.472V18.7323H113.094V22.0264Z" fill="white"/>
<path d="M110.397 18.7323V22.5289H109.775V18.7323H110.397Z" fill="white"/>
<path d="M107.154 22.5289L105.684 20.83V22.5289H105.061V18.7323H105.684V20.464L107.159 18.7323H107.94L106.29 20.6333L107.968 22.5289H107.154Z" fill="white"/>
<path d="M101.759 22.5672C101.504 22.5672 101.275 22.5235 101.071 22.4361C100.867 22.345 100.706 22.2176 100.59 22.0537C100.473 21.8898 100.415 21.6986 100.415 21.4801H101.082C101.096 21.644 101.16 21.7787 101.273 21.8843C101.389 21.9899 101.551 22.0427 101.759 22.0427C101.974 22.0427 102.141 21.9918 102.262 21.8898C102.382 21.7842 102.442 21.6494 102.442 21.4855C102.442 21.3581 102.404 21.2543 102.327 21.1742C102.254 21.094 102.161 21.0321 102.049 20.9884C101.939 20.9447 101.786 20.8974 101.59 20.8464C101.342 20.7808 101.14 20.7153 100.983 20.6497C100.83 20.5805 100.699 20.4749 100.59 20.3329C100.481 20.1909 100.426 20.0015 100.426 19.7648C100.426 19.5462 100.481 19.3551 100.59 19.1912C100.699 19.0273 100.852 18.9016 101.049 18.8142C101.245 18.7268 101.473 18.6831 101.732 18.6831C102.1 18.6831 102.4 18.776 102.633 18.9617C102.87 19.1438 103.001 19.3951 103.026 19.7156H102.338C102.327 19.5772 102.262 19.4588 102.141 19.3605C102.021 19.2622 101.863 19.213 101.666 19.213C101.488 19.213 101.342 19.2585 101.229 19.3496C101.116 19.4406 101.06 19.5717 101.06 19.7429C101.06 19.8594 101.094 19.956 101.164 20.0324C101.236 20.1053 101.327 20.1635 101.437 20.2072C101.546 20.2509 101.695 20.2983 101.885 20.3493C102.136 20.4185 102.34 20.4877 102.496 20.5569C102.657 20.6261 102.791 20.7335 102.901 20.8792C103.014 21.0212 103.07 21.2124 103.07 21.4528C103.07 21.6458 103.017 21.8279 102.912 21.999C102.81 22.1702 102.659 22.3086 102.458 22.4142C102.262 22.5162 102.029 22.5672 101.759 22.5672Z" fill="white"/>
<path d="M98.6576 19.8631C98.6576 20.0561 98.6121 20.2382 98.521 20.4094C98.43 20.5805 98.2843 20.7208 98.084 20.83C97.8837 20.9356 97.627 20.9884 97.3138 20.9884H96.6255V22.5289H96.0027V18.7323H97.3138C97.6051 18.7323 97.851 18.7833 98.0513 18.8852C98.2552 18.9836 98.4063 19.1183 98.5047 19.2895C98.6066 19.4607 98.6576 19.6519 98.6576 19.8631ZM97.3138 20.4804C97.5505 20.4804 97.7271 20.4276 97.8437 20.322C97.9602 20.2127 98.0185 20.0598 98.0185 19.8631C98.0185 19.4479 97.7836 19.2403 97.3138 19.2403H96.6255V20.4804H97.3138Z" fill="white"/>
<path d="M91.5919 18.7323V21.1523C91.5919 21.44 91.6665 21.6567 91.8159 21.8024C91.9688 21.9481 92.18 22.0209 92.4495 22.0209C92.7227 22.0209 92.9339 21.9481 93.0832 21.8024C93.2362 21.6567 93.3127 21.44 93.3127 21.1523V18.7323H93.9354V21.1414C93.9354 21.4509 93.868 21.7132 93.7333 21.928C93.5985 22.1429 93.4183 22.3031 93.1925 22.4088C92.9667 22.5144 92.7172 22.5672 92.4441 22.5672C92.1709 22.5672 91.9215 22.5144 91.6957 22.4088C91.4735 22.3031 91.2969 22.1429 91.1658 21.928C91.0347 21.7132 90.9691 21.4509 90.9691 21.1414V18.7323H91.5919Z" fill="white"/>
<path d="M86.0581 23.1462H85.4354V18.1532H86.0581V23.1462Z" fill="white"/>
<path d="M79.0975 19.2349V20.3493H80.4086V20.8573H79.0975V22.0209H80.5725V22.5289H78.4748V18.7268H80.5725V19.2349H79.0975Z" fill="white"/>
<path d="M76.4005 22.5289H75.7778L73.904 19.6937V22.5289H73.2813V18.7268H73.904L75.7778 21.5566V18.7268H76.4005V22.5289Z" fill="white"/>
<path d="M71.2072 18.7323V22.5289H70.5844V18.7323H71.2072Z" fill="white"/>
<path d="M68.7509 18.7323V19.2403H67.1393V20.3602H68.3958V20.8682H67.1393V22.5289H66.5166V18.7323H68.7509Z" fill="white"/>
<path d="M63.0181 19.2349V20.3493H64.3292V20.8573H63.0181V22.0209H64.4931V22.5289H62.3954V18.7268H64.4931V19.2349H63.0181Z" fill="white"/>
<path d="M58.5059 18.7323C58.9102 18.7323 59.2634 18.8106 59.5657 18.9672C59.8716 19.1201 60.1065 19.3423 60.2704 19.6337C60.438 19.9214 60.5217 20.2582 60.5217 20.6443C60.5217 21.0303 60.438 21.3654 60.2704 21.6494C60.1065 21.9335 59.8716 22.152 59.5657 22.305C59.2634 22.4543 58.9102 22.5289 58.5059 22.5289H57.2659V18.7323H58.5059ZM58.5059 22.0209C58.9502 22.0209 59.2908 21.9007 59.5275 21.6604C59.7642 21.42 59.8826 21.0813 59.8826 20.6443C59.8826 20.2036 59.7642 19.8594 59.5275 19.6118C59.2908 19.3642 58.9502 19.2403 58.5059 19.2403H57.8886V22.0209H58.5059Z" fill="white"/>
<path d="M53.7674 19.2349V20.3493H55.0785V20.8573H53.7674V22.0209H55.2424V22.5289H53.1447V18.7268H55.2424V19.2349H53.7674Z" fill="white"/>
<path d="M50.4087 22.5289L49.5347 21.0103H49.0594V22.5289H48.4366V18.7323H49.7477C50.0391 18.7323 50.2849 18.7833 50.4852 18.8852C50.6891 18.9872 50.8403 19.1238 50.9386 19.295C51.0406 19.4661 51.0916 19.6573 51.0916 19.8686C51.0916 20.1162 51.0187 20.342 50.873 20.5459C50.731 20.7462 50.5107 20.8828 50.212 20.9557L51.1516 22.5289H50.4087ZM49.0594 20.5132H49.7477C49.9808 20.5132 50.1556 20.4549 50.2721 20.3384C50.3923 20.2218 50.4524 20.0652 50.4524 19.8686C50.4524 19.6719 50.3941 19.5189 50.2776 19.4097C50.1611 19.2968 49.9844 19.2403 49.7477 19.2403H49.0594V20.5132Z" fill="white"/>
<path d="M168.329 1.45791H169.018L169.661 3.2165H169.671L170.308 1.45791H171V3.93322H170.563V1.94388H170.556L169.804 3.93322H169.497L168.755 1.94388H168.748V3.93322H168.329V1.45791Z" fill="white"/>
<path d="M166.842 1.84249H166.083V1.45791H168.041V1.84249H167.282V3.93322H166.842V1.84249Z" fill="white"/>
</svg>
